<svg xmlns="http://www.w3.org/2000/svg" viewBox="0 0 840 552" width="840" height="552" font-family="-apple-system,&#39;Segoe UI&#39;,system-ui,sans-serif" role="img" aria-label="Grimnirobser candlestick chart">
<text x="14.0" y="20.0" font-size="15" fill="#ffffff" font-weight="650">Grimnirobser</text>
<text x="117.0" y="20.0" font-size="11.5" fill="#c3c2b7">daily · contributions, volume = lines changed</text>
<text x="805.8" y="20.0" font-size="11.0" fill="#c3c2b7">fall</text>
<rect x="791" y="10" width="9" height="12" fill="#008300"/>
<text x="750.6" y="20.0" font-size="11.0" fill="#c3c2b7">rise</text>
<rect x="736" y="10" width="9" height="12" fill="none" stroke="#e66767" stroke-width="1.5"/>
<text x="14.0" y="38.0" font-size="11.0" fill="#898781">last 60 active days · 799 contributions · 6,151 lines changed · updated 2026-07-07</text>
<rect x="10" y="66" width="820" height="252" fill="none" stroke="#2c2c2a"/>
<rect x="10" y="344" width="820" height="76" fill="none" stroke="#2c2c2a"/>
<rect x="10" y="446" width="820" height="76" fill="none" stroke="#2c2c2a"/>
<text x="38.0" y="546.0" font-size="11.0" fill="#898781" text-anchor="middle">2026-04</text>
<line x1="242.3" y1="66.0" x2="242.3" y2="318.0" stroke="#2c2c2a" stroke-width="1.0"/>
<line x1="242.3" y1="344.0" x2="242.3" y2="420.0" stroke="#2c2c2a" stroke-width="1.0"/>
<line x1="242.3" y1="446.0" x2="242.3" y2="522.0" stroke="#2c2c2a" stroke-width="1.0"/>
<text x="249.2" y="546.0" font-size="11.0" fill="#898781" text-anchor="middle">2026-05</text>
<line x1="474.7" y1="66.0" x2="474.7" y2="318.0" stroke="#2c2c2a" stroke-width="1.0"/>
<line x1="474.7" y1="344.0" x2="474.7" y2="420.0" stroke="#2c2c2a" stroke-width="1.0"/>
<line x1="474.7" y1="446.0" x2="474.7" y2="522.0" stroke="#2c2c2a" stroke-width="1.0"/>
<text x="481.5" y="546.0" font-size="11.0" fill="#898781" text-anchor="middle">2026-06</text>
<line x1="734.3" y1="66.0" x2="734.3" y2="318.0" stroke="#2c2c2a" stroke-width="1.0"/>
<line x1="734.3" y1="344.0" x2="734.3" y2="420.0" stroke="#2c2c2a" stroke-width="1.0"/>
<line x1="734.3" y1="446.0" x2="734.3" y2="522.0" stroke="#2c2c2a" stroke-width="1.0"/>
<text x="741.2" y="546.0" font-size="11.0" fill="#898781" text-anchor="middle">2026-07</text>
<text x="14.0" y="58.0" font-size="11.0" fill="#c3c2b7">BOLL(20,2)</text>
<text x="84.5" y="58.0" font-size="11.0" fill="#c98500">UP:66.5</text>
<text x="136.9" y="58.0" font-size="11.0" fill="#3987e5">MID:20.6</text>
<text x="195.3" y="58.0" font-size="11.0" fill="#d55181">LOW:0</text>
<line x1="10.0" y1="318.0" x2="830.0" y2="318.0" stroke="#2c2c2a" stroke-width="1.0"/>
<text x="14.0" y="315.0" font-size="11.0" fill="#898781">0</text>
<line x1="10.0" y1="206.9" x2="830.0" y2="206.9" stroke="#2c2c2a" stroke-width="1.0"/>
<text x="14.0" y="203.9" font-size="11.0" fill="#898781">50</text>
<line x1="10.0" y1="95.8" x2="830.0" y2="95.8" stroke="#2c2c2a" stroke-width="1.0"/>
<text x="14.0" y="92.8" font-size="11.0" fill="#898781">100</text>
<polyline points="16.8,257.9 30.5,258.2 44.2,258.4 57.8,263.1 71.5,264.2 85.2,260.0 98.8,262.4 112.5,277.5 126.2,272.3 139.8,271.8 153.5,270.5 167.2,267.8 180.8,267.7 194.5,267.4 208.2,267.1 221.8,267.2 235.5,266.1 249.2,266.1 262.8,244.4 276.5,244.7 290.2,244.5 303.8,244.6 317.5,239.5 331.2,236.9 344.8,237.0 358.5,238.9 372.2,239.9 385.8,239.8 399.5,241.7 413.2,241.7 426.8,242.2 440.5,243.6 454.2,243.7 467.8,244.2 481.5,244.3 495.2,244.2 508.8,245.1 522.5,245.1 536.2,267.9 549.8,268.2 563.5,265.7 577.2,261.7 590.8,272.0 604.5,280.2 618.2,281.0 631.8,250.0 645.5,179.6 659.2,179.6 672.8,179.4 686.5,179.6 700.2,177.0 713.8,176.7 727.5,176.4 741.2,174.4 754.8,174.0 768.5,171.9 782.2,171.9 795.8,170.1 809.5,170.2 823.2,170.3" fill="none" stroke="#c98500" stroke-width="1.5" stroke-linejoin="round" stroke-linecap="round"/>
<polyline points="16.8,297.2 30.5,298.0 44.2,299.0 57.8,300.9 71.5,301.3 85.2,300.0 98.8,300.6 112.5,303.8 126.2,301.8 139.8,301.4 153.5,300.0 167.2,298.3 180.8,298.1 194.5,298.0 208.2,298.4 221.8,298.0 235.5,297.1 249.2,296.8 262.8,291.7 276.5,290.9 290.2,291.1 303.8,290.4 317.5,287.1 331.2,285.0 344.8,285.2 358.5,287.2 372.2,289.3 385.8,288.9 399.5,290.7 413.2,290.7 426.8,291.9 440.5,293.0 454.2,293.3 467.8,294.6 481.5,294.1 495.2,294.8 508.8,296.0 522.5,296.6 536.2,301.4 549.8,302.0 563.5,300.2 577.2,298.8 590.8,301.2 604.5,303.4 618.2,304.2 631.8,299.1 645.5,287.2 659.2,287.1 672.8,286.8 686.5,287.0 700.2,284.4 713.8,283.9 727.5,283.3 741.2,280.8 754.8,279.7 768.5,276.7 782.2,276.6 795.8,273.7 809.5,273.3 823.2,272.3" fill="none" stroke="#3987e5" stroke-width="1.5" stroke-linejoin="round" stroke-linecap="round"/>
<polyline points="16.8,318.0 30.5,318.0 44.2,318.0 57.8,318.0 71.5,318.0 85.2,318.0 98.8,318.0 112.5,318.0 126.2,318.0 139.8,318.0 153.5,318.0 167.2,318.0 180.8,318.0 194.5,318.0 208.2,318.0 221.8,318.0 235.5,318.0 249.2,318.0 262.8,318.0 276.5,318.0 290.2,318.0 303.8,318.0 317.5,318.0 331.2,318.0 344.8,318.0 358.5,318.0 372.2,318.0 385.8,318.0 399.5,318.0 413.2,318.0 426.8,318.0 440.5,318.0 454.2,318.0 467.8,318.0 481.5,318.0 495.2,318.0 508.8,318.0 522.5,318.0 536.2,318.0 549.8,318.0 563.5,318.0 577.2,318.0 590.8,318.0 604.5,318.0 618.2,318.0 631.8,318.0 645.5,318.0 659.2,318.0 672.8,318.0 686.5,318.0 700.2,318.0 713.8,318.0 727.5,318.0 741.2,318.0 754.8,318.0 768.5,318.0 782.2,318.0 795.8,318.0 809.5,318.0 823.2,318.0" fill="none" stroke="#d55181" stroke-width="1.5" stroke-linejoin="round" stroke-linecap="round"/>
<rect x="13.1" y="311.3" width="7.5" height="4.4" fill="none" stroke="#e66767" stroke-width="1.3"/>
<rect x="26.7" y="311.3" width="7.5" height="1.2" fill="#898781"/>
<rect x="40.4" y="315.8" width="7.5" height="2.2" fill="none" stroke="#e66767" stroke-width="1.3"/>
<rect x="54.1" y="304.7" width="7.5" height="11.1" fill="none" stroke="#e66767" stroke-width="1.3"/>
<rect x="67.7" y="291.3" width="7.5" height="13.3" fill="none" stroke="#e66767" stroke-width="1.3"/>
<rect x="81.4" y="266.9" width="7.5" height="24.4" fill="none" stroke="#e66767" stroke-width="1.3"/>
<rect x="95.1" y="273.6" width="7.5" height="44.4" fill="none" stroke="#e66767" stroke-width="1.3"/>
<rect x="108.7" y="273.6" width="7.5" height="31.1" fill="#008300"/>
<rect x="122.4" y="271.3" width="7.5" height="33.3" fill="none" stroke="#e66767" stroke-width="1.3"/>
<rect x="136.1" y="271.3" width="7.5" height="24.4" fill="#008300"/>
<rect x="149.7" y="286.9" width="7.5" height="8.9" fill="none" stroke="#e66767" stroke-width="1.3"/>
<rect x="163.4" y="278.0" width="7.5" height="40.0" fill="none" stroke="#e66767" stroke-width="1.3"/>
<rect x="177.1" y="278.0" width="7.5" height="20.0" fill="#008300"/>
<rect x="190.7" y="289.1" width="7.5" height="8.9" fill="none" stroke="#e66767" stroke-width="1.3"/>
<rect x="204.4" y="315.8" width="7.5" height="2.2" fill="none" stroke="#e66767" stroke-width="1.3"/>
<rect x="218.1" y="302.4" width="7.5" height="15.6" fill="none" stroke="#e66767" stroke-width="1.3"/>
<rect x="231.7" y="286.9" width="7.5" height="31.1" fill="none" stroke="#e66767" stroke-width="1.3"/>
<rect x="245.4" y="302.4" width="7.5" height="15.6" fill="none" stroke="#e66767" stroke-width="1.3"/>
<rect x="259.1" y="211.3" width="7.5" height="91.1" fill="none" stroke="#e66767" stroke-width="1.3"/>
<rect x="272.7" y="300.2" width="7.5" height="17.8" fill="none" stroke="#e66767" stroke-width="1.3"/>
<rect x="286.4" y="300.2" width="7.5" height="15.6" fill="#008300"/>
<rect x="300.1" y="298.0" width="7.5" height="17.8" fill="none" stroke="#e66767" stroke-width="1.3"/>
<rect x="313.7" y="249.1" width="7.5" height="48.9" fill="none" stroke="#e66767" stroke-width="1.3"/>
<rect x="327.4" y="249.1" width="7.5" height="13.3" fill="#008300"/>
<rect x="341.1" y="262.4" width="7.5" height="33.3" fill="#008300"/>
<rect x="354.7" y="295.8" width="7.5" height="11.1" fill="#008300"/>
<rect x="368.4" y="315.8" width="7.5" height="2.2" fill="none" stroke="#e66767" stroke-width="1.3"/>
<rect x="382.1" y="295.8" width="7.5" height="20.0" fill="none" stroke="#e66767" stroke-width="1.3"/>
<rect x="395.7" y="295.8" width="7.5" height="11.1" fill="#008300"/>
<rect x="409.4" y="295.8" width="7.5" height="11.1" fill="none" stroke="#e66767" stroke-width="1.3"/>
<rect x="423.1" y="311.3" width="7.5" height="6.7" fill="none" stroke="#e66767" stroke-width="1.3"/>
<rect x="436.7" y="300.2" width="7.5" height="11.1" fill="none" stroke="#e66767" stroke-width="1.3"/>
<rect x="450.4" y="300.2" width="7.5" height="4.4" fill="#008300"/>
<rect x="464.1" y="313.6" width="7.5" height="4.4" fill="none" stroke="#e66767" stroke-width="1.3"/>
<rect x="477.7" y="306.9" width="7.5" height="6.7" fill="none" stroke="#e66767" stroke-width="1.3"/>
<rect x="491.4" y="306.9" width="7.5" height="8.9" fill="#008300"/>
<rect x="505.1" y="311.3" width="7.5" height="6.7" fill="none" stroke="#e66767" stroke-width="1.3"/>
<rect x="518.7" y="311.3" width="7.5" height="2.2" fill="#008300"/>
<rect x="532.4" y="309.1" width="7.5" height="4.4" fill="none" stroke="#e66767" stroke-width="1.3"/>
<rect x="546.1" y="309.1" width="7.5" height="2.2" fill="#008300"/>
<rect x="559.7" y="280.2" width="7.5" height="31.1" fill="none" stroke="#e66767" stroke-width="1.3"/>
<rect x="573.4" y="269.1" width="7.5" height="11.1" fill="none" stroke="#e66767" stroke-width="1.3"/>
<rect x="587.1" y="269.1" width="7.5" height="28.9" fill="#008300"/>
<rect x="600.7" y="298.0" width="7.5" height="8.9" fill="#008300"/>
<rect x="614.4" y="311.3" width="7.5" height="6.7" fill="none" stroke="#e66767" stroke-width="1.3"/>
<rect x="628.1" y="204.7" width="7.5" height="113.3" fill="none" stroke="#e66767" stroke-width="1.3"/>
<rect x="641.7" y="78.0" width="7.5" height="126.7" fill="none" stroke="#e66767" stroke-width="1.3"/>
<rect x="655.4" y="78.0" width="7.5" height="215.6" fill="#008300"/>
<rect x="669.1" y="300.2" width="7.5" height="17.8" fill="none" stroke="#e66767" stroke-width="1.3"/>
<rect x="682.7" y="300.2" width="7.5" height="1.2" fill="#898781"/>
<rect x="696.4" y="260.2" width="7.5" height="40.0" fill="none" stroke="#e66767" stroke-width="1.3"/>
<rect x="710.1" y="260.2" width="7.5" height="28.9" fill="#008300"/>
<rect x="723.7" y="289.1" width="7.5" height="4.4" fill="#008300"/>
<rect x="737.4" y="262.4" width="7.5" height="31.1" fill="none" stroke="#e66767" stroke-width="1.3"/>
<rect x="751.1" y="262.4" width="7.5" height="22.2" fill="#008300"/>
<rect x="764.7" y="255.8" width="7.5" height="28.9" fill="none" stroke="#e66767" stroke-width="1.3"/>
<rect x="778.4" y="255.8" width="7.5" height="53.3" fill="#008300"/>
<rect x="792.1" y="255.8" width="7.5" height="53.3" fill="none" stroke="#e66767" stroke-width="1.3"/>
<rect x="805.7" y="255.8" width="7.5" height="46.7" fill="#008300"/>
<rect x="819.4" y="291.3" width="7.5" height="11.1" fill="none" stroke="#e66767" stroke-width="1.3"/>
<circle cx="645.5" cy="78.0" r="2" fill="#c3c2b7"/>
<line x1="645.5" y1="78.0" x2="637.5" y2="78.0" stroke="#c3c2b7" stroke-width="1.0"/>
<text x="634.5" y="82.0" font-size="11.0" fill="#c3c2b7" text-anchor="end">108</text>
<circle cx="44.2" cy="318.0" r="2" fill="#c3c2b7"/>
<line x1="44.2" y1="318.0" x2="52.2" y2="318.0" stroke="#c3c2b7" stroke-width="1.0"/>
<text x="55.2" y="312.0" font-size="11.0" fill="#c3c2b7">0</text>
<text x="14.0" y="336.0" font-size="11.0" fill="#c3c2b7">RSI(6,12,24)</text>
<text x="96.6" y="336.0" font-size="11.0" fill="#c98500">RSI6:47.2</text>
<text x="161.1" y="336.0" font-size="11.0" fill="#3987e5">RSI12:48.7</text>
<text x="231.6" y="336.0" font-size="11.0" fill="#d55181">RSI24:49.6</text>
<line x1="10.0" y1="404.8" x2="830.0" y2="404.8" stroke="#2c2c2a" stroke-width="1.0" stroke-dasharray="3 3"/>
<line x1="10.0" y1="382.0" x2="830.0" y2="382.0" stroke="#2c2c2a" stroke-width="1.0" stroke-dasharray="3 3"/>
<text x="14.0" y="379.0" font-size="10" fill="#898781">50.00</text>
<line x1="10.0" y1="359.2" x2="830.0" y2="359.2" stroke="#2c2c2a" stroke-width="1.0" stroke-dasharray="3 3"/>
<text x="14.0" y="356.2" font-size="10" fill="#898781">80.00</text>
<polyline points="16.8,386.0 30.5,386.0 44.2,389.9 57.8,378.1 71.5,368.9 85.2,359.7 98.8,366.2 112.5,386.6 126.2,372.7 139.8,383.2 153.5,379.7 167.2,376.3 180.8,385.3 194.5,381.2 208.2,391.4 221.8,385.0 235.5,378.4 249.2,385.1 262.8,363.2 276.5,385.0 290.2,387.6 303.8,383.6 317.5,374.3 331.2,377.6 344.8,385.0 358.5,387.3 372.2,389.3 385.8,383.0 399.5,386.1 413.2,382.2 426.8,387.3 440.5,382.8 454.2,384.6 467.8,388.2 481.5,384.5 495.2,388.7 508.8,385.7 522.5,387.0 536.2,383.4 549.8,385.2 563.5,366.8 577.2,363.2 590.8,382.2 604.5,386.3 618.2,388.4 631.8,360.0 645.5,352.4 659.2,385.7 672.8,386.3 686.5,386.3 700.2,380.6 713.8,384.7 727.5,385.4 741.2,379.7 754.8,384.0 768.5,378.4 782.2,388.2 795.8,378.4 809.5,386.3 823.2,384.1" fill="none" stroke="#c98500" stroke-width="1.5" stroke-linejoin="round" stroke-linecap="round"/>
<polyline points="16.8,384.1 30.5,384.1 44.2,385.6 57.8,381.6 71.5,377.4 85.2,371.4 98.8,373.9 112.5,383.4 126.2,375.8 139.8,381.7 153.5,379.8 167.2,377.9 180.8,382.7 194.5,380.7 208.2,386.4 221.8,383.3 235.5,379.9 249.2,383.4 262.8,369.5 276.5,383.3 290.2,385.1 303.8,382.7 317.5,376.9 331.2,378.7 344.8,383.1 358.5,384.4 372.2,385.5 385.8,382.5 399.5,384.1 413.2,382.4 426.8,384.7 440.5,382.8 454.2,383.5 467.8,385.0 481.5,383.7 495.2,385.3 508.8,384.4 522.5,384.8 536.2,383.7 549.8,384.2 563.5,376.9 577.2,374.7 590.8,381.8 604.5,383.8 618.2,384.8 631.8,367.9 645.5,359.6 659.2,383.3 672.8,383.8 686.5,383.8 700.2,380.4 713.8,382.9 727.5,383.3 741.2,380.4 754.8,382.5 768.5,379.8 782.2,384.9 795.8,379.9 809.5,384.1 823.2,383.0" fill="none" stroke="#3987e5" stroke-width="1.5" stroke-linejoin="round" stroke-linecap="round"/>
<polyline points="16.8,382.0 30.5,382.0 44.2,382.6 57.8,381.1 71.5,379.4 85.2,376.5 98.8,377.4 112.5,381.7 126.2,377.9 139.8,380.9 153.5,379.9 167.2,379.0 180.8,381.4 194.5,380.4 208.2,383.4 221.8,381.9 235.5,380.3 249.2,382.0 262.8,373.9 276.5,382.2 290.2,383.4 303.8,381.9 317.5,378.3 331.2,379.4 344.8,382.0 358.5,382.8 372.2,383.5 385.8,381.9 399.5,382.8 413.2,381.8 426.8,383.1 440.5,382.2 454.2,382.5 467.8,383.3 481.5,382.7 495.2,383.5 508.8,383.1 522.5,383.3 536.2,382.8 549.8,383.1 563.5,379.9 577.2,378.8 590.8,381.8 604.5,382.8 618.2,383.2 631.8,374.2 645.5,367.5 659.2,382.3 672.8,382.7 686.5,382.7 700.2,380.5 713.8,382.1 727.5,382.4 741.2,380.6 754.8,381.9 768.5,380.3 782.2,383.3 795.8,380.4 809.5,382.9 823.2,382.3" fill="none" stroke="#d55181" stroke-width="1.5" stroke-linejoin="round" stroke-linecap="round"/>
<text x="14.0" y="438.0" font-size="11.0" fill="#c3c2b7">VOL 1,983 lines</text>
<text x="114.8" y="438.0" font-size="11.0" fill="#c98500">MA5:396.6</text>
<text x="179.2" y="438.0" font-size="11.0" fill="#3987e5">MA10:198.3</text>
<text x="14.0" y="457.0" font-size="10" fill="#898781">2,706</text>
<rect x="573.4" y="484.1" width="7.5" height="37.9" fill="none" stroke="#e66767" stroke-width="1.1"/>
<rect x="587.1" y="450.0" width="7.5" height="72.0" fill="#008300"/>
<rect x="600.7" y="521.0" width="7.5" height="1.0" fill="#008300"/>
<rect x="819.4" y="469.2" width="7.5" height="52.8" fill="none" stroke="#e66767" stroke-width="1.1"/>
<polyline points="16.8,522.0 30.5,522.0 44.2,522.0 57.8,522.0 71.5,522.0 85.2,522.0 98.8,522.0 112.5,522.0 126.2,522.0 139.8,522.0 153.5,522.0 167.2,522.0 180.8,522.0 194.5,522.0 208.2,522.0 221.8,522.0 235.5,522.0 249.2,522.0 262.8,522.0 276.5,522.0 290.2,522.0 303.8,522.0 317.5,522.0 331.2,522.0 344.8,522.0 358.5,522.0 372.2,522.0 385.8,522.0 399.5,522.0 413.2,522.0 426.8,522.0 440.5,522.0 454.2,522.0 467.8,522.0 481.5,522.0 495.2,522.0 508.8,522.0 522.5,522.0 536.2,522.0 549.8,522.0 563.5,522.0 577.2,518.2 590.8,511.0 604.5,510.9 618.2,510.9 631.8,510.9 645.5,510.9 659.2,510.9 672.8,510.9 686.5,510.9 700.2,510.9 713.8,514.7 727.5,521.9 741.2,522.0 754.8,522.0 768.5,522.0 782.2,522.0 795.8,522.0 809.5,522.0 823.2,516.7" fill="none" stroke="#3987e5" stroke-width="1.5" stroke-linejoin="round" stroke-linecap="round"/>
<polyline points="16.8,522.0 30.5,522.0 44.2,522.0 57.8,522.0 71.5,522.0 85.2,522.0 98.8,522.0 112.5,522.0 126.2,522.0 139.8,522.0 153.5,522.0 167.2,522.0 180.8,522.0 194.5,522.0 208.2,522.0 221.8,522.0 235.5,522.0 249.2,522.0 262.8,522.0 276.5,522.0 290.2,522.0 303.8,522.0 317.5,522.0 331.2,522.0 344.8,522.0 358.5,522.0 372.2,522.0 385.8,522.0 399.5,522.0 413.2,522.0 426.8,522.0 440.5,522.0 454.2,522.0 467.8,522.0 481.5,522.0 495.2,522.0 508.8,522.0 522.5,522.0 536.2,522.0 549.8,522.0 563.5,522.0 577.2,514.4 590.8,500.0 604.5,499.8 618.2,499.8 631.8,499.8 645.5,507.4 659.2,521.8 672.8,522.0 686.5,522.0 700.2,522.0 713.8,522.0 727.5,522.0 741.2,522.0 754.8,522.0 768.5,522.0 782.2,522.0 795.8,522.0 809.5,522.0 823.2,511.4" fill="none" stroke="#c98500" stroke-width="1.5" stroke-linejoin="round" stroke-linecap="round"/>
</svg>