<svg xmlns="http://www.w3.org/2000/svg" viewBox="0 0 840 496" width="840" height="496" font-family="-apple-system,&#39;Segoe UI&#39;,system-ui,sans-serif" role="img" aria-label="Grimnirobser candlestick chart">
<text x="14.0" y="20.0" font-size="15" fill="#ffffff" font-weight="650">Grimnirobser</text>
<text x="117.0" y="20.0" font-size="11.5" fill="#c3c2b7">daily · contributions, volume = lines changed</text>
<text x="805.8" y="20.0" font-size="11.0" fill="#c3c2b7">fall</text>
<rect x="791" y="10" width="9" height="12" fill="#008300"/>
<text x="750.6" y="20.0" font-size="11.0" fill="#c3c2b7">rise</text>
<rect x="736" y="10" width="9" height="12" fill="none" stroke="#e66767" stroke-width="1.5"/>
<text x="14.0" y="38.0" font-size="11.0" fill="#898781">last 60 active days · 776 contributions · 25,299 lines changed · updated 2026-07-19</text>
<rect x="10" y="66" width="820" height="290" fill="none" stroke="#2c2c2a"/>
<rect x="10" y="384" width="820" height="86" fill="none" stroke="#2c2c2a"/>
<text x="38.0" y="490.0" font-size="11.0" fill="#898781" text-anchor="middle">2026-04</text>
<line x1="133.0" y1="66.0" x2="133.0" y2="356.0" stroke="#2c2c2a" stroke-width="1.0"/>
<line x1="133.0" y1="384.0" x2="133.0" y2="470.0" stroke="#2c2c2a" stroke-width="1.0"/>
<text x="139.8" y="490.0" font-size="11.0" fill="#898781" text-anchor="middle">2026-05</text>
<line x1="365.3" y1="66.0" x2="365.3" y2="356.0" stroke="#2c2c2a" stroke-width="1.0"/>
<line x1="365.3" y1="384.0" x2="365.3" y2="470.0" stroke="#2c2c2a" stroke-width="1.0"/>
<text x="372.2" y="490.0" font-size="11.0" fill="#898781" text-anchor="middle">2026-06</text>
<line x1="625.0" y1="66.0" x2="625.0" y2="356.0" stroke="#2c2c2a" stroke-width="1.0"/>
<line x1="625.0" y1="384.0" x2="625.0" y2="470.0" stroke="#2c2c2a" stroke-width="1.0"/>
<text x="631.8" y="490.0" font-size="11.0" fill="#898781" text-anchor="middle">2026-07</text>
<text x="14.0" y="58.0" font-size="11.0" fill="#c3c2b7">BOLL(20,2)</text>
<text x="84.5" y="58.0" font-size="11.0" fill="#c98500">UP:33.2</text>
<text x="136.9" y="58.0" font-size="11.0" fill="#3987e5">MID:11.8</text>
<text x="195.3" y="58.0" font-size="11.0" fill="#d55181">LOW:0</text>
<text x="235.5" y="58.0" font-size="11.0" fill="#9085e9">MA7:4</text>
<line x1="10.0" y1="356.0" x2="830.0" y2="356.0" stroke="#2c2c2a" stroke-width="1.0"/>
<text x="14.0" y="353.0" font-size="11.0" fill="#898781">0</text>
<line x1="10.0" y1="228.1" x2="830.0" y2="228.1" stroke="#2c2c2a" stroke-width="1.0"/>
<text x="14.0" y="225.1" font-size="11.0" fill="#898781">50</text>
<line x1="10.0" y1="100.3" x2="830.0" y2="100.3" stroke="#2c2c2a" stroke-width="1.0"/>
<text x="14.0" y="97.3" font-size="11.0" fill="#898781">100</text>
<polyline points="16.8,303.4 30.5,302.9 44.2,301.3 57.8,298.3 71.5,298.1 85.2,297.8 98.8,297.5 112.5,297.5 126.2,296.3 139.8,296.3 153.5,271.3 167.2,271.6 180.8,271.4 194.5,271.6 208.2,265.6 221.8,262.7 235.5,262.8 249.2,264.9 262.8,266.1 276.5,266.1 290.2,268.2 303.8,268.2 317.5,268.7 331.2,270.4 344.8,270.5 358.5,271.0 372.2,271.2 385.8,271.1 399.5,272.1 413.2,272.1 426.8,298.3 440.5,298.6 454.2,295.9 467.8,291.2 481.5,303.0 495.2,312.4 508.8,313.4 522.5,277.7 536.2,196.8 549.8,196.7 563.5,196.5 577.2,196.7 590.8,193.8 604.5,193.4 618.2,193.1 631.8,190.8 645.5,190.3 659.2,187.8 672.8,187.9 686.5,185.8 700.2,185.9 713.8,183.0 727.5,182.9 741.2,183.6 754.8,182.9 768.5,182.6 782.2,182.5 795.8,192.8 809.5,270.9 823.2,271.0" fill="none" stroke="#c98500" stroke-width="1.5" stroke-linejoin="round" stroke-linecap="round"/>
<polyline points="16.8,337.3 30.5,336.9 44.2,335.3 57.8,333.4 71.5,333.1 85.2,333.0 98.8,333.5 112.5,333.0 126.2,332.0 139.8,331.6 153.5,325.7 167.2,324.8 180.8,325.1 194.5,324.3 208.2,320.5 221.8,318.0 235.5,318.3 249.2,320.6 262.8,323.0 276.5,322.5 290.2,324.5 303.8,324.5 317.5,326.0 331.2,327.2 344.8,327.6 358.5,329.0 372.2,328.5 385.8,329.3 399.5,330.7 413.2,331.3 426.8,336.9 440.5,337.6 454.2,335.5 467.8,333.9 481.5,336.7 495.2,339.2 508.8,340.1 522.5,334.3 536.2,320.6 549.8,320.5 563.5,320.1 577.2,320.3 590.8,317.4 604.5,316.7 618.2,316.1 631.8,313.2 645.5,311.9 659.2,308.4 672.8,308.3 686.5,305.0 700.2,304.6 713.8,300.8 727.5,302.7 741.2,305.4 754.8,304.0 768.5,304.5 782.2,304.7 795.8,311.1 809.5,324.8 823.2,325.8" fill="none" stroke="#3987e5" stroke-width="1.5" stroke-linejoin="round" stroke-linecap="round"/>
<polyline points="16.8,356.0 30.5,356.0 44.2,356.0 57.8,356.0 71.5,356.0 85.2,356.0 98.8,356.0 112.5,356.0 126.2,356.0 139.8,356.0 153.5,356.0 167.2,356.0 180.8,356.0 194.5,356.0 208.2,356.0 221.8,356.0 235.5,356.0 249.2,356.0 262.8,356.0 276.5,356.0 290.2,356.0 303.8,356.0 317.5,356.0 331.2,356.0 344.8,356.0 358.5,356.0 372.2,356.0 385.8,356.0 399.5,356.0 413.2,356.0 426.8,356.0 440.5,356.0 454.2,356.0 467.8,356.0 481.5,356.0 495.2,356.0 508.8,356.0 522.5,356.0 536.2,356.0 549.8,356.0 563.5,356.0 577.2,356.0 590.8,356.0 604.5,356.0 618.2,356.0 631.8,356.0 645.5,356.0 659.2,356.0 672.8,356.0 686.5,356.0 700.2,356.0 713.8,356.0 727.5,356.0 741.2,356.0 754.8,356.0 768.5,356.0 782.2,356.0 795.8,356.0 809.5,356.0 823.2,356.0" fill="none" stroke="#d55181" stroke-width="1.5" stroke-linejoin="round" stroke-linecap="round"/>
<polyline points="16.8,323.5 30.5,320.2 44.2,317.4 57.8,315.1 71.5,320.2 85.2,322.8 98.8,324.5 112.5,329.7 126.2,328.1 139.8,330.7 153.5,319.9 167.2,320.2 180.8,324.5 194.5,321.7 208.2,312.8 221.8,308.9 235.5,307.7 249.2,323.5 262.8,326.1 276.5,322.8 290.2,324.3 303.8,332.0 317.5,339.9 331.2,340.7 344.8,340.4 358.5,339.9 372.2,341.7 385.8,343.2 399.5,345.8 413.2,346.0 426.8,347.6 440.5,348.6 454.2,343.2 467.8,337.1 481.5,334.0 495.2,333.2 508.8,333.0 522.5,315.9 536.2,277.5 549.8,279.5 563.5,284.7 577.2,285.2 590.8,277.5 604.5,273.9 618.2,288.5 631.8,318.7 645.5,317.4 659.2,310.0 672.8,311.5 686.5,310.7 700.2,312.8 713.8,304.9 727.5,313.3 741.2,318.4 754.8,321.2 768.5,322.5 782.2,332.2 795.8,334.5 809.5,346.0 823.2,345.8" fill="none" stroke="#9085e9" stroke-width="1.5" stroke-linejoin="round" stroke-linecap="round"/>
<rect x="13.1" y="302.3" width="7.5" height="38.4" fill="none" stroke="#e66767" stroke-width="1.3"/>
<rect x="26.7" y="302.3" width="7.5" height="28.1" fill="#008300"/>
<rect x="40.4" y="320.2" width="7.5" height="10.2" fill="none" stroke="#e66767" stroke-width="1.3"/>
<rect x="54.1" y="310.0" width="7.5" height="46.0" fill="none" stroke="#e66767" stroke-width="1.3"/>
<rect x="67.7" y="310.0" width="7.5" height="23.0" fill="#008300"/>
<rect x="81.4" y="322.8" width="7.5" height="10.2" fill="none" stroke="#e66767" stroke-width="1.3"/>
<rect x="95.1" y="353.4" width="7.5" height="2.6" fill="none" stroke="#e66767" stroke-width="1.3"/>
<rect x="108.7" y="338.1" width="7.5" height="17.9" fill="none" stroke="#e66767" stroke-width="1.3"/>
<rect x="122.4" y="320.2" width="7.5" height="35.8" fill="none" stroke="#e66767" stroke-width="1.3"/>
<rect x="136.1" y="338.1" width="7.5" height="17.9" fill="none" stroke="#e66767" stroke-width="1.3"/>
<rect x="149.7" y="233.2" width="7.5" height="104.9" fill="none" stroke="#e66767" stroke-width="1.3"/>
<rect x="163.4" y="335.5" width="7.5" height="20.5" fill="none" stroke="#e66767" stroke-width="1.3"/>
<rect x="177.1" y="335.5" width="7.5" height="17.9" fill="#008300"/>
<rect x="190.7" y="333.0" width="7.5" height="20.5" fill="none" stroke="#e66767" stroke-width="1.3"/>
<rect x="204.4" y="276.7" width="7.5" height="56.3" fill="none" stroke="#e66767" stroke-width="1.3"/>
<rect x="218.1" y="276.7" width="7.5" height="15.3" fill="#008300"/>
<rect x="231.7" y="292.1" width="7.5" height="38.4" fill="#008300"/>
<rect x="245.4" y="330.4" width="7.5" height="12.8" fill="#008300"/>
<rect x="259.1" y="353.4" width="7.5" height="2.6" fill="none" stroke="#e66767" stroke-width="1.3"/>
<rect x="272.7" y="330.4" width="7.5" height="23.0" fill="none" stroke="#e66767" stroke-width="1.3"/>
<rect x="286.4" y="330.4" width="7.5" height="12.8" fill="#008300"/>
<rect x="300.1" y="330.4" width="7.5" height="12.8" fill="none" stroke="#e66767" stroke-width="1.3"/>
<rect x="313.7" y="348.3" width="7.5" height="7.7" fill="none" stroke="#e66767" stroke-width="1.3"/>
<rect x="327.4" y="335.5" width="7.5" height="12.8" fill="none" stroke="#e66767" stroke-width="1.3"/>
<rect x="341.1" y="335.5" width="7.5" height="5.1" fill="#008300"/>
<rect x="354.7" y="350.9" width="7.5" height="5.1" fill="none" stroke="#e66767" stroke-width="1.3"/>
<rect x="368.4" y="343.2" width="7.5" height="7.7" fill="none" stroke="#e66767" stroke-width="1.3"/>
<rect x="382.1" y="343.2" width="7.5" height="10.2" fill="#008300"/>
<rect x="395.7" y="348.3" width="7.5" height="7.7" fill="none" stroke="#e66767" stroke-width="1.3"/>
<rect x="409.4" y="348.3" width="7.5" height="2.6" fill="#008300"/>
<rect x="423.1" y="345.8" width="7.5" height="5.1" fill="none" stroke="#e66767" stroke-width="1.3"/>
<rect x="436.7" y="345.8" width="7.5" height="2.6" fill="#008300"/>
<rect x="450.4" y="312.5" width="7.5" height="35.8" fill="none" stroke="#e66767" stroke-width="1.3"/>
<rect x="464.1" y="299.7" width="7.5" height="12.8" fill="none" stroke="#e66767" stroke-width="1.3"/>
<rect x="477.7" y="299.7" width="7.5" height="33.2" fill="#008300"/>
<rect x="491.4" y="333.0" width="7.5" height="10.2" fill="#008300"/>
<rect x="505.1" y="348.3" width="7.5" height="7.7" fill="none" stroke="#e66767" stroke-width="1.3"/>
<rect x="518.7" y="225.6" width="7.5" height="130.4" fill="none" stroke="#e66767" stroke-width="1.3"/>
<rect x="532.4" y="79.8" width="7.5" height="145.8" fill="none" stroke="#e66767" stroke-width="1.3"/>
<rect x="546.1" y="79.8" width="7.5" height="248.1" fill="#008300"/>
<rect x="559.7" y="335.5" width="7.5" height="20.5" fill="none" stroke="#e66767" stroke-width="1.3"/>
<rect x="573.4" y="335.5" width="7.5" height="1.2" fill="#898781"/>
<rect x="587.1" y="289.5" width="7.5" height="46.0" fill="none" stroke="#e66767" stroke-width="1.3"/>
<rect x="600.7" y="289.5" width="7.5" height="33.2" fill="#008300"/>
<rect x="614.4" y="322.8" width="7.5" height="5.1" fill="#008300"/>
<rect x="628.1" y="292.1" width="7.5" height="35.8" fill="none" stroke="#e66767" stroke-width="1.3"/>
<rect x="641.7" y="292.1" width="7.5" height="25.6" fill="#008300"/>
<rect x="655.4" y="284.4" width="7.5" height="33.2" fill="none" stroke="#e66767" stroke-width="1.3"/>
<rect x="669.1" y="284.4" width="7.5" height="61.4" fill="#008300"/>
<rect x="682.7" y="284.4" width="7.5" height="61.4" fill="none" stroke="#e66767" stroke-width="1.3"/>
<rect x="696.4" y="284.4" width="7.5" height="53.7" fill="#008300"/>
<rect x="710.1" y="271.6" width="7.5" height="66.5" fill="none" stroke="#e66767" stroke-width="1.3"/>
<rect x="723.7" y="271.6" width="7.5" height="79.3" fill="#008300"/>
<rect x="737.4" y="350.9" width="7.5" height="2.6" fill="#008300"/>
<rect x="751.1" y="304.9" width="7.5" height="51.1" fill="none" stroke="#e66767" stroke-width="1.3"/>
<rect x="764.7" y="353.4" width="7.5" height="2.6" fill="none" stroke="#e66767" stroke-width="1.3"/>
<rect x="778.4" y="353.4" width="7.5" height="1.2" fill="#898781"/>
<rect x="792.1" y="353.4" width="7.5" height="1.2" fill="#898781"/>
<rect x="805.7" y="353.4" width="7.5" height="1.2" fill="#898781"/>
<rect x="819.4" y="348.3" width="7.5" height="5.1" fill="none" stroke="#e66767" stroke-width="1.3"/>
<circle cx="536.2" cy="79.8" r="2" fill="#c3c2b7"/>
<line x1="536.2" y1="79.8" x2="528.2" y2="79.8" stroke="#c3c2b7" stroke-width="1.0"/>
<text x="525.2" y="83.8" font-size="11.0" fill="#c3c2b7" text-anchor="end">108</text>
<circle cx="57.8" cy="356.0" r="2" fill="#c3c2b7"/>
<line x1="57.8" y1="356.0" x2="65.8" y2="356.0" stroke="#c3c2b7" stroke-width="1.0"/>
<text x="68.8" y="350.0" font-size="11.0" fill="#c3c2b7">0</text>
<text x="14.0" y="376.0" font-size="11.0" fill="#c3c2b7">VOL 0 lines</text>
<text x="90.6" y="376.0" font-size="11.0" fill="#c98500">MA5:0</text>
<text x="130.8" y="376.0" font-size="11.0" fill="#3987e5">MA10:2,113.1</text>
<text x="14.0" y="395.0" font-size="10" fill="#898781">21,131</text>
<rect x="464.1" y="464.5" width="7.5" height="5.5" fill="none" stroke="#e66767" stroke-width="1.1"/>
<rect x="477.7" y="459.5" width="7.5" height="10.5" fill="#008300"/>
<rect x="710.1" y="388.0" width="7.5" height="82.0" fill="none" stroke="#e66767" stroke-width="1.1"/>
<polyline points="16.8,470.0 30.5,470.0 44.2,470.0 57.8,470.0 71.5,470.0 85.2,470.0 98.8,470.0 112.5,470.0 126.2,470.0 139.8,470.0 153.5,470.0 167.2,470.0 180.8,470.0 194.5,470.0 208.2,470.0 221.8,470.0 235.5,470.0 249.2,470.0 262.8,470.0 276.5,470.0 290.2,470.0 303.8,470.0 317.5,470.0 331.2,470.0 344.8,470.0 358.5,470.0 372.2,470.0 385.8,470.0 399.5,470.0 413.2,470.0 426.8,470.0 440.5,470.0 454.2,470.0 467.8,469.4 481.5,468.4 495.2,468.4 508.8,468.4 522.5,468.4 536.2,468.4 549.8,468.4 563.5,468.4 577.2,468.4 590.8,468.4 604.5,468.9 618.2,470.0 631.8,470.0 645.5,470.0 659.2,470.0 672.8,470.0 686.5,470.0 700.2,470.0 713.8,461.8 727.5,461.8 741.2,461.8 754.8,461.8 768.5,461.8 782.2,461.8 795.8,461.8 809.5,461.8 823.2,461.8" fill="none" stroke="#3987e5" stroke-width="1.5" stroke-linejoin="round" stroke-linecap="round"/>
<polyline points="16.8,470.0 30.5,470.0 44.2,470.0 57.8,470.0 71.5,470.0 85.2,470.0 98.8,470.0 112.5,470.0 126.2,470.0 139.8,470.0 153.5,470.0 167.2,470.0 180.8,470.0 194.5,470.0 208.2,470.0 221.8,470.0 235.5,470.0 249.2,470.0 262.8,470.0 276.5,470.0 290.2,470.0 303.8,470.0 317.5,470.0 331.2,470.0 344.8,470.0 358.5,470.0 372.2,470.0 385.8,470.0 399.5,470.0 413.2,470.0 426.8,470.0 440.5,470.0 454.2,470.0 467.8,468.9 481.5,466.8 495.2,466.8 508.8,466.8 522.5,466.8 536.2,467.9 549.8,470.0 563.5,470.0 577.2,470.0 590.8,470.0 604.5,470.0 618.2,470.0 631.8,470.0 645.5,470.0 659.2,470.0 672.8,470.0 686.5,470.0 700.2,470.0 713.8,453.6 727.5,453.6 741.2,453.6 754.8,453.6 768.5,453.6 782.2,470.0 795.8,470.0 809.5,470.0 823.2,470.0" fill="none" stroke="#c98500" stroke-width="1.5" stroke-linejoin="round" stroke-linecap="round"/>
</svg>