<svg xmlns="http://www.w3.org/2000/svg" viewBox="0 0 840 496" width="840" height="496" font-family="-apple-system,&#39;Segoe UI&#39;,system-ui,sans-serif" role="img" aria-label="Grimnirobser candlestick chart">
<text x="14.0" y="20.0" font-size="15" fill="#0b0b0b" font-weight="650">Grimnirobser</text>
<text x="117.0" y="20.0" font-size="11.5" fill="#52514e">daily · contributions, volume = lines changed</text>
<text x="805.8" y="20.0" font-size="11.0" fill="#52514e">fall</text>
<rect x="791" y="10" width="9" height="12" fill="#008300"/>
<text x="750.6" y="20.0" font-size="11.0" fill="#52514e">rise</text>
<rect x="736" y="10" width="9" height="12" fill="none" stroke="#e34948" stroke-width="1.5"/>
<text x="14.0" y="38.0" font-size="11.0" fill="#898781">last 60 active days · 756 contributions · 25,299 lines changed · updated 2026-07-21</text>
<rect x="10" y="66" width="820" height="290" fill="none" stroke="#e1e0d9"/>
<rect x="10" y="384" width="820" height="86" fill="none" stroke="#e1e0d9"/>
<text x="38.0" y="490.0" font-size="11.0" fill="#898781" text-anchor="middle">2026-04</text>
<line x1="105.7" y1="66.0" x2="105.7" y2="356.0" stroke="#e1e0d9" stroke-width="1.0"/>
<line x1="105.7" y1="384.0" x2="105.7" y2="470.0" stroke="#e1e0d9" stroke-width="1.0"/>
<text x="112.5" y="490.0" font-size="11.0" fill="#898781" text-anchor="middle">2026-05</text>
<line x1="338.0" y1="66.0" x2="338.0" y2="356.0" stroke="#e1e0d9" stroke-width="1.0"/>
<line x1="338.0" y1="384.0" x2="338.0" y2="470.0" stroke="#e1e0d9" stroke-width="1.0"/>
<text x="344.8" y="490.0" font-size="11.0" fill="#898781" text-anchor="middle">2026-06</text>
<line x1="597.7" y1="66.0" x2="597.7" y2="356.0" stroke="#e1e0d9" stroke-width="1.0"/>
<line x1="597.7" y1="384.0" x2="597.7" y2="470.0" stroke="#e1e0d9" stroke-width="1.0"/>
<text x="604.5" y="490.0" font-size="11.0" fill="#898781" text-anchor="middle">2026-07</text>
<text x="14.0" y="58.0" font-size="11.0" fill="#52514e">BOLL(20,2)</text>
<text x="84.5" y="58.0" font-size="11.0" fill="#eda100">UP:33.2</text>
<text x="136.9" y="58.0" font-size="11.0" fill="#2a78d6">MID:11.6</text>
<text x="195.3" y="58.0" font-size="11.0" fill="#e87ba4">LOW:0</text>
<text x="235.5" y="58.0" font-size="11.0" fill="#4a3aa7">MA7:2.6</text>
<line x1="10.0" y1="356.0" x2="830.0" y2="356.0" stroke="#e1e0d9" stroke-width="1.0"/>
<text x="14.0" y="353.0" font-size="11.0" fill="#898781">0</text>
<line x1="10.0" y1="228.1" x2="830.0" y2="228.1" stroke="#e1e0d9" stroke-width="1.0"/>
<text x="14.0" y="225.1" font-size="11.0" fill="#898781">50</text>
<line x1="10.0" y1="100.3" x2="830.0" y2="100.3" stroke="#e1e0d9" stroke-width="1.0"/>
<text x="14.0" y="97.3" font-size="11.0" fill="#898781">100</text>
<polyline points="16.8,301.3 30.5,298.3 44.2,298.1 57.8,297.8 71.5,297.5 85.2,297.5 98.8,296.3 112.5,296.3 126.2,271.3 139.8,271.6 153.5,271.4 167.2,271.6 180.8,265.6 194.5,262.7 208.2,262.8 221.8,264.9 235.5,266.1 249.2,266.1 262.8,268.2 276.5,268.2 290.2,268.7 303.8,270.4 317.5,270.5 331.2,271.0 344.8,271.2 358.5,271.1 372.2,272.1 385.8,272.1 399.5,298.3 413.2,298.6 426.8,295.9 440.5,291.2 454.2,303.0 467.8,312.4 481.5,313.4 495.2,277.7 508.8,196.8 522.5,196.7 536.2,196.5 549.8,196.7 563.5,193.8 577.2,193.4 590.8,193.1 604.5,190.8 618.2,190.3 631.8,187.8 645.5,187.9 659.2,185.8 672.8,185.9 686.5,183.0 700.2,182.9 713.8,183.6 727.5,182.9 741.2,182.6 754.8,182.5 768.5,192.8 782.2,270.9 795.8,271.0 809.5,271.1 823.2,271.0" fill="none" stroke="#eda100" stroke-width="1.5" stroke-linejoin="round" stroke-linecap="round"/>
<polyline points="16.8,335.3 30.5,333.4 44.2,333.1 57.8,333.0 71.5,333.5 85.2,333.0 98.8,332.0 112.5,331.6 126.2,325.7 139.8,324.8 153.5,325.1 167.2,324.3 180.8,320.5 194.5,318.0 208.2,318.3 221.8,320.6 235.5,323.0 249.2,322.5 262.8,324.5 276.5,324.5 290.2,326.0 303.8,327.2 317.5,327.6 331.2,329.0 344.8,328.5 358.5,329.3 372.2,330.7 385.8,331.3 399.5,336.9 413.2,337.6 426.8,335.5 440.5,333.9 454.2,336.7 467.8,339.2 481.5,340.1 495.2,334.3 508.8,320.6 522.5,320.5 536.2,320.1 549.8,320.3 563.5,317.4 577.2,316.7 590.8,316.1 604.5,313.2 618.2,311.9 631.8,308.4 645.5,308.3 659.2,305.0 672.8,304.6 686.5,300.8 700.2,302.7 713.8,305.4 727.5,304.0 741.2,304.5 754.8,304.7 768.5,311.1 782.2,324.8 795.8,325.7 809.5,326.0 823.2,326.5" fill="none" stroke="#2a78d6" stroke-width="1.5" stroke-linejoin="round" stroke-linecap="round"/>
<polyline points="16.8,356.0 30.5,356.0 44.2,356.0 57.8,356.0 71.5,356.0 85.2,356.0 98.8,356.0 112.5,356.0 126.2,356.0 139.8,356.0 153.5,356.0 167.2,356.0 180.8,356.0 194.5,356.0 208.2,356.0 221.8,356.0 235.5,356.0 249.2,356.0 262.8,356.0 276.5,356.0 290.2,356.0 303.8,356.0 317.5,356.0 331.2,356.0 344.8,356.0 358.5,356.0 372.2,356.0 385.8,356.0 399.5,356.0 413.2,356.0 426.8,356.0 440.5,356.0 454.2,356.0 467.8,356.0 481.5,356.0 495.2,356.0 508.8,356.0 522.5,356.0 536.2,356.0 549.8,356.0 563.5,356.0 577.2,356.0 590.8,356.0 604.5,356.0 618.2,356.0 631.8,356.0 645.5,356.0 659.2,356.0 672.8,356.0 686.5,356.0 700.2,356.0 713.8,356.0 727.5,356.0 741.2,356.0 754.8,356.0 768.5,356.0 782.2,356.0 795.8,356.0 809.5,356.0 823.2,356.0" fill="none" stroke="#e87ba4" stroke-width="1.5" stroke-linejoin="round" stroke-linecap="round"/>
<polyline points="16.8,317.4 30.5,315.1 44.2,320.2 57.8,322.8 71.5,324.5 85.2,329.7 98.8,328.1 112.5,330.7 126.2,319.9 139.8,320.2 153.5,324.5 167.2,321.7 180.8,312.8 194.5,308.9 208.2,307.7 221.8,323.5 235.5,326.1 249.2,322.8 262.8,324.3 276.5,332.0 290.2,339.9 303.8,340.7 317.5,340.4 331.2,339.9 344.8,341.7 358.5,343.2 372.2,345.8 385.8,346.0 399.5,347.6 413.2,348.6 426.8,343.2 440.5,337.1 454.2,334.0 467.8,333.2 481.5,333.0 495.2,315.9 508.8,277.5 522.5,279.5 536.2,284.7 549.8,285.2 563.5,277.5 577.2,273.9 590.8,288.5 604.5,318.7 618.2,317.4 631.8,310.0 645.5,311.5 659.2,310.7 672.8,312.8 686.5,304.9 700.2,313.3 713.8,318.4 727.5,321.2 741.2,322.5 754.8,332.2 768.5,334.5 782.2,346.0 795.8,345.5 809.5,343.5 823.2,349.4" fill="none" stroke="#4a3aa7" stroke-width="1.5" stroke-linejoin="round" stroke-linecap="round"/>
<rect x="13.1" y="320.2" width="7.5" height="10.2" fill="none" stroke="#e34948" stroke-width="1.3"/>
<rect x="26.7" y="310.0" width="7.5" height="46.0" fill="none" stroke="#e34948" stroke-width="1.3"/>
<rect x="40.4" y="310.0" width="7.5" height="23.0" fill="#008300"/>
<rect x="54.1" y="322.8" width="7.5" height="10.2" fill="none" stroke="#e34948" stroke-width="1.3"/>
<rect x="67.7" y="353.4" width="7.5" height="2.6" fill="none" stroke="#e34948" stroke-width="1.3"/>
<rect x="81.4" y="338.1" width="7.5" height="17.9" fill="none" stroke="#e34948" stroke-width="1.3"/>
<rect x="95.1" y="320.2" width="7.5" height="35.8" fill="none" stroke="#e34948" stroke-width="1.3"/>
<rect x="108.7" y="338.1" width="7.5" height="17.9" fill="none" stroke="#e34948" stroke-width="1.3"/>
<rect x="122.4" y="233.2" width="7.5" height="104.9" fill="none" stroke="#e34948" stroke-width="1.3"/>
<rect x="136.1" y="335.5" width="7.5" height="20.5" fill="none" stroke="#e34948" stroke-width="1.3"/>
<rect x="149.7" y="335.5" width="7.5" height="17.9" fill="#008300"/>
<rect x="163.4" y="333.0" width="7.5" height="20.5" fill="none" stroke="#e34948" stroke-width="1.3"/>
<rect x="177.1" y="276.7" width="7.5" height="56.3" fill="none" stroke="#e34948" stroke-width="1.3"/>
<rect x="190.7" y="276.7" width="7.5" height="15.3" fill="#008300"/>
<rect x="204.4" y="292.1" width="7.5" height="38.4" fill="#008300"/>
<rect x="218.1" y="330.4" width="7.5" height="12.8" fill="#008300"/>
<rect x="231.7" y="353.4" width="7.5" height="2.6" fill="none" stroke="#e34948" stroke-width="1.3"/>
<rect x="245.4" y="330.4" width="7.5" height="23.0" fill="none" stroke="#e34948" stroke-width="1.3"/>
<rect x="259.1" y="330.4" width="7.5" height="12.8" fill="#008300"/>
<rect x="272.7" y="330.4" width="7.5" height="12.8" fill="none" stroke="#e34948" stroke-width="1.3"/>
<rect x="286.4" y="348.3" width="7.5" height="7.7" fill="none" stroke="#e34948" stroke-width="1.3"/>
<rect x="300.1" y="335.5" width="7.5" height="12.8" fill="none" stroke="#e34948" stroke-width="1.3"/>
<rect x="313.7" y="335.5" width="7.5" height="5.1" fill="#008300"/>
<rect x="327.4" y="350.9" width="7.5" height="5.1" fill="none" stroke="#e34948" stroke-width="1.3"/>
<rect x="341.1" y="343.2" width="7.5" height="7.7" fill="none" stroke="#e34948" stroke-width="1.3"/>
<rect x="354.7" y="343.2" width="7.5" height="10.2" fill="#008300"/>
<rect x="368.4" y="348.3" width="7.5" height="7.7" fill="none" stroke="#e34948" stroke-width="1.3"/>
<rect x="382.1" y="348.3" width="7.5" height="2.6" fill="#008300"/>
<rect x="395.7" y="345.8" width="7.5" height="5.1" fill="none" stroke="#e34948" stroke-width="1.3"/>
<rect x="409.4" y="345.8" width="7.5" height="2.6" fill="#008300"/>
<rect x="423.1" y="312.5" width="7.5" height="35.8" fill="none" stroke="#e34948" stroke-width="1.3"/>
<rect x="436.7" y="299.7" width="7.5" height="12.8" fill="none" stroke="#e34948" stroke-width="1.3"/>
<rect x="450.4" y="299.7" width="7.5" height="33.2" fill="#008300"/>
<rect x="464.1" y="333.0" width="7.5" height="10.2" fill="#008300"/>
<rect x="477.7" y="348.3" width="7.5" height="7.7" fill="none" stroke="#e34948" stroke-width="1.3"/>
<rect x="491.4" y="225.6" width="7.5" height="130.4" fill="none" stroke="#e34948" stroke-width="1.3"/>
<rect x="505.1" y="79.8" width="7.5" height="145.8" fill="none" stroke="#e34948" stroke-width="1.3"/>
<rect x="518.7" y="79.8" width="7.5" height="248.1" fill="#008300"/>
<rect x="532.4" y="335.5" width="7.5" height="20.5" fill="none" stroke="#e34948" stroke-width="1.3"/>
<rect x="546.1" y="335.5" width="7.5" height="1.2" fill="#898781"/>
<rect x="559.7" y="289.5" width="7.5" height="46.0" fill="none" stroke="#e34948" stroke-width="1.3"/>
<rect x="573.4" y="289.5" width="7.5" height="33.2" fill="#008300"/>
<rect x="587.1" y="322.8" width="7.5" height="5.1" fill="#008300"/>
<rect x="600.7" y="292.1" width="7.5" height="35.8" fill="none" stroke="#e34948" stroke-width="1.3"/>
<rect x="614.4" y="292.1" width="7.5" height="25.6" fill="#008300"/>
<rect x="628.1" y="284.4" width="7.5" height="33.2" fill="none" stroke="#e34948" stroke-width="1.3"/>
<rect x="641.7" y="284.4" width="7.5" height="61.4" fill="#008300"/>
<rect x="655.4" y="284.4" width="7.5" height="61.4" fill="none" stroke="#e34948" stroke-width="1.3"/>
<rect x="669.1" y="284.4" width="7.5" height="53.7" fill="#008300"/>
<rect x="682.7" y="271.6" width="7.5" height="66.5" fill="none" stroke="#e34948" stroke-width="1.3"/>
<rect x="696.4" y="271.6" width="7.5" height="79.3" fill="#008300"/>
<rect x="710.1" y="350.9" width="7.5" height="2.6" fill="#008300"/>
<rect x="723.7" y="304.9" width="7.5" height="51.1" fill="none" stroke="#e34948" stroke-width="1.3"/>
<rect x="737.4" y="353.4" width="7.5" height="2.6" fill="none" stroke="#e34948" stroke-width="1.3"/>
<rect x="751.1" y="353.4" width="7.5" height="1.2" fill="#898781"/>
<rect x="764.7" y="353.4" width="7.5" height="1.2" fill="#898781"/>
<rect x="778.4" y="353.4" width="7.5" height="1.2" fill="#898781"/>
<rect x="792.1" y="345.8" width="7.5" height="7.7" fill="none" stroke="#e34948" stroke-width="1.3"/>
<rect x="805.7" y="340.7" width="7.5" height="5.1" fill="none" stroke="#e34948" stroke-width="1.3"/>
<rect x="819.4" y="345.8" width="7.5" height="10.2" fill="none" stroke="#e34948" stroke-width="1.3"/>
<circle cx="508.8" cy="79.8" r="2" fill="#52514e"/>
<line x1="508.8" y1="79.8" x2="500.8" y2="79.8" stroke="#52514e" stroke-width="1.0"/>
<text x="497.8" y="83.8" font-size="11.0" fill="#52514e" text-anchor="end">108</text>
<circle cx="30.5" cy="356.0" r="2" fill="#52514e"/>
<line x1="30.5" y1="356.0" x2="38.5" y2="356.0" stroke="#52514e" stroke-width="1.0"/>
<text x="41.5" y="350.0" font-size="11.0" fill="#52514e">0</text>
<text x="14.0" y="376.0" font-size="11.0" fill="#52514e">VOL 0 lines</text>
<text x="90.6" y="376.0" font-size="11.0" fill="#eda100">MA5:0</text>
<text x="130.8" y="376.0" font-size="11.0" fill="#2a78d6">MA10:0</text>
<text x="14.0" y="395.0" font-size="10" fill="#898781">21,131</text>
<rect x="436.7" y="464.5" width="7.5" height="5.5" fill="none" stroke="#e34948" stroke-width="1.1"/>
<rect x="450.4" y="459.5" width="7.5" height="10.5" fill="#008300"/>
<rect x="682.7" y="388.0" width="7.5" height="82.0" fill="none" stroke="#e34948" stroke-width="1.1"/>
<polyline points="16.8,470.0 30.5,470.0 44.2,470.0 57.8,470.0 71.5,470.0 85.2,470.0 98.8,470.0 112.5,470.0 126.2,470.0 139.8,470.0 153.5,470.0 167.2,470.0 180.8,470.0 194.5,470.0 208.2,470.0 221.8,470.0 235.5,470.0 249.2,470.0 262.8,470.0 276.5,470.0 290.2,470.0 303.8,470.0 317.5,470.0 331.2,470.0 344.8,470.0 358.5,470.0 372.2,470.0 385.8,470.0 399.5,470.0 413.2,470.0 426.8,470.0 440.5,469.4 454.2,468.4 467.8,468.4 481.5,468.4 495.2,468.4 508.8,468.4 522.5,468.4 536.2,468.4 549.8,468.4 563.5,468.4 577.2,468.9 590.8,470.0 604.5,470.0 618.2,470.0 631.8,470.0 645.5,470.0 659.2,470.0 672.8,470.0 686.5,461.8 700.2,461.8 713.8,461.8 727.5,461.8 741.2,461.8 754.8,461.8 768.5,461.8 782.2,461.8 795.8,461.8 809.5,461.8 823.2,470.0" fill="none" stroke="#2a78d6" stroke-width="1.5" stroke-linejoin="round" stroke-linecap="round"/>
<polyline points="16.8,470.0 30.5,470.0 44.2,470.0 57.8,470.0 71.5,470.0 85.2,470.0 98.8,470.0 112.5,470.0 126.2,470.0 139.8,470.0 153.5,470.0 167.2,470.0 180.8,470.0 194.5,470.0 208.2,470.0 221.8,470.0 235.5,470.0 249.2,470.0 262.8,470.0 276.5,470.0 290.2,470.0 303.8,470.0 317.5,470.0 331.2,470.0 344.8,470.0 358.5,470.0 372.2,470.0 385.8,470.0 399.5,470.0 413.2,470.0 426.8,470.0 440.5,468.9 454.2,466.8 467.8,466.8 481.5,466.8 495.2,466.8 508.8,467.9 522.5,470.0 536.2,470.0 549.8,470.0 563.5,470.0 577.2,470.0 590.8,470.0 604.5,470.0 618.2,470.0 631.8,470.0 645.5,470.0 659.2,470.0 672.8,470.0 686.5,453.6 700.2,453.6 713.8,453.6 727.5,453.6 741.2,453.6 754.8,470.0 768.5,470.0 782.2,470.0 795.8,470.0 809.5,470.0 823.2,470.0" fill="none" stroke="#eda100" stroke-width="1.5" stroke-linejoin="round" stroke-linecap="round"/>
</svg>