<svg xmlns="http://www.w3.org/2000/svg" viewBox="0 0 840 380" width="840" height="380" font-family="-apple-system,&#39;Segoe UI&#39;,system-ui,sans-serif" role="img" aria-label="Grimnirobser candlestick chart">
<text x="10" y="20" font-size="15" font-weight="650" fill="#ffffff">Grimnirobser</text>
<text x="113" y="20" font-size="11.5" fill="#c3c2b7">daily · commits, volume = contributions</text>
<text x="10" y="38" font-size="11" fill="#898781">last 60 active days · 17 commits · 797 contributions · updated 2026-07-07</text>
<text x="806" y="20" font-size="11" fill="#c3c2b7">MA10</text>
<rect x="789" y="14.5" width="13" height="2.5" rx="1" fill="#9085e9"/>
<text x="755" y="20" font-size="11" fill="#c3c2b7">MA5</text>
<rect x="738" y="14.5" width="13" height="2.5" rx="1" fill="#3987e5"/>
<text x="697" y="20" font-size="11" fill="#c3c2b7">fall</text>
<rect x="682" y="10" width="9" height="12" rx="2.5" fill="#008300"/>
<text x="642" y="20" font-size="11" fill="#c3c2b7">rise</text>
<rect x="627" y="10" width="9" height="12" rx="2.5" fill="none" stroke="#e66767" stroke-width="1.5"/>
<line x1="8" x2="788" y1="286.0" y2="286.0" stroke="#2c2c2a"/>
<text x="796" y="290.0" font-size="11" fill="#898781">0</text>
<line x1="8" x2="788" y1="165.5" y2="165.5" stroke="#2c2c2a"/>
<text x="796" y="169.5" font-size="11" fill="#898781">5</text>
<line x1="8" x2="788" y1="356.0" y2="356.0" stroke="#383835"/>
<text x="796" y="308.0" font-size="11" fill="#898781">108</text>
<text x="796" y="320.0" font-size="10" fill="#898781">contrib</text>
<text x="34.0" y="372" font-size="11" fill="#898781" text-anchor="middle">04-02</text>
<text x="144.5" y="372" font-size="11" fill="#898781" text-anchor="middle">04-17</text>
<text x="274.5" y="372" font-size="11" fill="#898781" text-anchor="middle">05-10</text>
<text x="404.5" y="372" font-size="11" fill="#898781" text-anchor="middle">05-25</text>
<text x="534.5" y="372" font-size="11" fill="#898781" text-anchor="middle">06-10</text>
<text x="664.5" y="372" font-size="11" fill="#898781" text-anchor="middle">06-28</text>
<rect x="10.5" y="286.0" width="8.1" height="1.5" rx="2.0" fill="#898781"/>
<path d="M10.5,356.0 L10.5,356.0 Q10.5,354.6 11.9,354.6 L17.1,354.6 Q18.5,354.6 18.5,356.0 L18.5,356.0 Z" fill="#898781"/>
<rect x="23.5" y="286.0" width="8.1" height="1.5" rx="2.0" fill="#898781"/>
<path d="M23.5,356.0 L23.5,356.0 Q23.5,354.6 24.9,354.6 L30.1,354.6 Q31.5,354.6 31.5,356.0 L31.5,356.0 Z" fill="#898781"/>
<rect x="36.5" y="286.0" width="8.1" height="1.5" rx="2.0" fill="#898781"/>
<path d="M36.5,356.0 L36.5,356.0 Q36.5,355.5 37.0,355.5 L44.0,355.5 Q44.5,355.5 44.5,356.0 L44.5,356.0 Z" fill="#898781"/>
<rect x="49.5" y="286.0" width="8.1" height="1.5" rx="2.0" fill="#898781"/>
<path d="M49.5,356.0 L49.5,356.0 Q49.5,353.1 52.4,353.1 L54.6,353.1 Q57.5,353.1 57.5,356.0 L57.5,356.0 Z" fill="#898781"/>
<rect x="62.5" y="286.0" width="8.1" height="1.5" rx="2.0" fill="#898781"/>
<path d="M62.5,356.0 L62.5,354.2 Q62.5,350.2 66.5,350.2 L66.5,350.2 Q70.5,350.2 70.5,354.2 L70.5,356.0 Z" fill="#898781"/>
<rect x="75.5" y="286.0" width="8.1" height="1.5" rx="2.0" fill="#898781"/>
<path d="M75.5,356.0 L75.5,348.9 Q75.5,344.9 79.5,344.9 L79.5,344.9 Q83.5,344.9 83.5,348.9 L83.5,356.0 Z" fill="#898781"/>
<rect x="88.5" y="286.0" width="8.1" height="1.5" rx="2.0" fill="#898781"/>
<path d="M88.5,356.0 L88.5,350.4 Q88.5,346.4 92.5,346.4 L92.5,346.4 Q96.5,346.4 96.5,350.4 L96.5,356.0 Z" fill="#898781"/>
<rect x="101.5" y="286.0" width="8.1" height="1.5" rx="2.0" fill="#898781"/>
<path d="M101.5,356.0 L101.5,356.0 Q101.5,353.1 104.4,353.1 L106.6,353.1 Q109.5,353.1 109.5,356.0 L109.5,356.0 Z" fill="#898781"/>
<rect x="114.5" y="286.0" width="8.1" height="1.5" rx="2.0" fill="#898781"/>
<path d="M114.5,356.0 L114.5,349.9 Q114.5,345.9 118.5,345.9 L118.5,345.9 Q122.5,345.9 122.5,349.9 L122.5,356.0 Z" fill="#898781"/>
<rect x="127.5" y="286.0" width="8.1" height="1.5" rx="2.0" fill="#898781"/>
<path d="M127.5,356.0 L127.5,355.2 Q127.5,351.2 131.5,351.2 L131.5,351.2 Q135.5,351.2 135.5,355.2 L135.5,356.0 Z" fill="#898781"/>
<rect x="140.5" y="286.0" width="8.1" height="1.5" rx="2.0" fill="#898781"/>
<path d="M140.5,356.0 L140.5,353.3 Q140.5,349.3 144.5,349.3 L144.5,349.3 Q148.5,349.3 148.5,353.3 L148.5,356.0 Z" fill="#898781"/>
<rect x="153.5" y="286.0" width="8.1" height="1.5" rx="2.0" fill="#898781"/>
<path d="M153.5,356.0 L153.5,351.3 Q153.5,347.3 157.5,347.3 L157.5,347.3 Q161.5,347.3 161.5,351.3 L161.5,356.0 Z" fill="#898781"/>
<rect x="166.5" y="286.0" width="8.1" height="1.5" rx="2.0" fill="#898781"/>
<path d="M166.5,356.0 L166.5,355.7 Q166.5,351.7 170.5,351.7 L170.5,351.7 Q174.5,351.7 174.5,355.7 L174.5,356.0 Z" fill="#898781"/>
<rect x="179.5" y="286.0" width="8.1" height="1.5" rx="2.0" fill="#898781"/>
<path d="M179.5,356.0 L179.5,353.7 Q179.5,349.7 183.5,349.7 L183.5,349.7 Q187.5,349.7 187.5,353.7 L187.5,356.0 Z" fill="#898781"/>
<rect x="192.5" y="286.0" width="8.1" height="1.5" rx="2.0" fill="#898781"/>
<path d="M192.5,356.0 L192.5,356.0 Q192.5,355.5 193.0,355.5 L200.0,355.5 Q200.5,355.5 200.5,356.0 L200.5,356.0 Z" fill="#898781"/>
<rect x="205.5" y="286.0" width="8.1" height="1.5" rx="2.0" fill="#898781"/>
<path d="M205.5,356.0 L205.5,356.0 Q205.5,352.6 208.8,352.6 L210.2,352.6 Q213.5,352.6 213.5,356.0 L213.5,356.0 Z" fill="#898781"/>
<rect x="218.5" y="286.0" width="8.1" height="1.5" rx="2.0" fill="#898781"/>
<path d="M218.5,356.0 L218.5,353.3 Q218.5,349.3 222.5,349.3 L222.5,349.3 Q226.5,349.3 226.5,353.3 L226.5,356.0 Z" fill="#898781"/>
<rect x="231.5" y="286.0" width="8.1" height="1.5" rx="2.0" fill="#898781"/>
<path d="M231.5,356.0 L231.5,356.0 Q231.5,352.6 234.8,352.6 L236.2,352.6 Q239.5,352.6 239.5,356.0 L239.5,356.0 Z" fill="#898781"/>
<rect x="244.5" y="286.0" width="8.1" height="1.5" rx="2.0" fill="#898781"/>
<path d="M244.5,356.0 L244.5,336.9 Q244.5,332.9 248.5,332.9 L248.5,332.9 Q252.5,332.9 252.5,336.9 L252.5,356.0 Z" fill="#898781"/>
<rect x="257.5" y="286.0" width="8.1" height="1.5" rx="2.0" fill="#898781"/>
<path d="M257.5,356.0 L257.5,356.0 Q257.5,352.1 261.3,352.1 L261.7,352.1 Q265.5,352.1 265.5,356.0 L265.5,356.0 Z" fill="#898781"/>
<rect x="270.5" y="286.0" width="8.1" height="1.5" rx="2.0" fill="#898781"/>
<path d="M270.5,356.0 L270.5,356.0 Q270.5,355.5 271.0,355.5 L278.0,355.5 Q278.5,355.5 278.5,356.0 L278.5,356.0 Z" fill="#898781"/>
<rect x="283.5" y="286.0" width="8.1" height="1.5" rx="2.0" fill="#898781"/>
<path d="M283.5,356.0 L283.5,355.7 Q283.5,351.7 287.5,351.7 L287.5,351.7 Q291.5,351.7 291.5,355.7 L291.5,356.0 Z" fill="#898781"/>
<rect x="296.5" y="286.0" width="8.1" height="1.5" rx="2.0" fill="#898781"/>
<path d="M296.5,356.0 L296.5,345.1 Q296.5,341.1 300.5,341.1 L300.5,341.1 Q304.5,341.1 304.5,345.1 L304.5,356.0 Z" fill="#898781"/>
<rect x="309.5" y="286.0" width="8.1" height="1.5" rx="2.0" fill="#898781"/>
<path d="M309.5,356.0 L309.5,348.0 Q309.5,344.0 313.5,344.0 L313.5,344.0 Q317.5,344.0 317.5,348.0 L317.5,356.0 Z" fill="#898781"/>
<rect x="322.5" y="286.0" width="8.1" height="1.5" rx="2.0" fill="#898781"/>
<path d="M322.5,356.0 L322.5,355.2 Q322.5,351.2 326.5,351.2 L326.5,351.2 Q330.5,351.2 330.5,355.2 L330.5,356.0 Z" fill="#898781"/>
<rect x="335.5" y="286.0" width="8.1" height="1.5" rx="2.0" fill="#898781"/>
<path d="M335.5,356.0 L335.5,356.0 Q335.5,353.6 337.9,353.6 L341.1,353.6 Q343.5,353.6 343.5,356.0 L343.5,356.0 Z" fill="#898781"/>
<rect x="348.5" y="286.0" width="8.1" height="1.5" rx="2.0" fill="#898781"/>
<path d="M348.5,356.0 L348.5,356.0 Q348.5,355.5 349.0,355.5 L356.0,355.5 Q356.5,355.5 356.5,356.0 L356.5,356.0 Z" fill="#898781"/>
<rect x="361.5" y="286.0" width="8.1" height="1.5" rx="2.0" fill="#898781"/>
<path d="M361.5,356.0 L361.5,355.2 Q361.5,351.2 365.5,351.2 L365.5,351.2 Q369.5,351.2 369.5,355.2 L369.5,356.0 Z" fill="#898781"/>
<rect x="374.5" y="286.0" width="8.1" height="1.5" rx="2.0" fill="#898781"/>
<path d="M374.5,356.0 L374.5,356.0 Q374.5,353.6 376.9,353.6 L380.1,353.6 Q382.5,353.6 382.5,356.0 L382.5,356.0 Z" fill="#898781"/>
<rect x="387.5" y="286.0" width="8.1" height="1.5" rx="2.0" fill="#898781"/>
<path d="M387.5,356.0 L387.5,355.2 Q387.5,351.2 391.5,351.2 L391.5,351.2 Q395.5,351.2 395.5,355.2 L395.5,356.0 Z" fill="#898781"/>
<rect x="400.5" y="286.0" width="8.1" height="1.5" rx="2.0" fill="#898781"/>
<path d="M400.5,356.0 L400.5,356.0 Q400.5,354.6 401.9,354.6 L407.1,354.6 Q408.5,354.6 408.5,356.0 L408.5,356.0 Z" fill="#898781"/>
<rect x="413.5" y="286.0" width="8.1" height="1.5" rx="2.0" fill="#898781"/>
<path d="M413.5,356.0 L413.5,356.0 Q413.5,352.1 417.3,352.1 L417.7,352.1 Q421.5,352.1 421.5,356.0 L421.5,356.0 Z" fill="#898781"/>
<rect x="426.5" y="286.0" width="8.1" height="1.5" rx="2.0" fill="#898781"/>
<path d="M426.5,356.0 L426.5,356.0 Q426.5,353.1 429.4,353.1 L431.6,353.1 Q434.5,353.1 434.5,356.0 L434.5,356.0 Z" fill="#898781"/>
<rect x="439.5" y="286.0" width="8.1" height="1.5" rx="2.0" fill="#898781"/>
<path d="M439.5,356.0 L439.5,356.0 Q439.5,355.0 440.4,355.0 L446.6,355.0 Q447.5,355.0 447.5,356.0 L447.5,356.0 Z" fill="#898781"/>
<rect x="452.5" y="286.0" width="8.1" height="1.5" rx="2.0" fill="#898781"/>
<path d="M452.5,356.0 L452.5,356.0 Q452.5,353.6 454.9,353.6 L458.1,353.6 Q460.5,353.6 460.5,356.0 L460.5,356.0 Z" fill="#898781"/>
<rect x="465.5" y="286.0" width="8.1" height="1.5" rx="2.0" fill="#898781"/>
<path d="M465.5,356.0 L465.5,356.0 Q465.5,355.5 466.0,355.5 L473.0,355.5 Q473.5,355.5 473.5,356.0 L473.5,356.0 Z" fill="#898781"/>
<rect x="478.5" y="286.0" width="8.1" height="1.5" rx="2.0" fill="#898781"/>
<path d="M478.5,356.0 L478.5,356.0 Q478.5,354.6 479.9,354.6 L485.1,354.6 Q486.5,354.6 486.5,356.0 L486.5,356.0 Z" fill="#898781"/>
<rect x="491.5" y="286.0" width="8.1" height="1.5" rx="2.0" fill="#898781"/>
<path d="M491.5,356.0 L491.5,356.0 Q491.5,355.0 492.4,355.0 L498.6,355.0 Q499.5,355.0 499.5,356.0 L499.5,356.0 Z" fill="#898781"/>
<rect x="504.5" y="286.0" width="8.1" height="1.5" rx="2.0" fill="#898781"/>
<path d="M504.5,356.0 L504.5,356.0 Q504.5,354.1 506.4,354.1 L510.6,354.1 Q512.5,354.1 512.5,356.0 L512.5,356.0 Z" fill="#898781"/>
<rect x="517.5" y="286.0" width="8.1" height="1.5" rx="2.0" fill="#898781"/>
<path d="M517.5,356.0 L517.5,356.0 Q517.5,354.6 518.9,354.6 L524.1,354.6 Q525.5,354.6 525.5,356.0 L525.5,356.0 Z" fill="#898781"/>
<rect x="530.5" y="286.0" width="8.1" height="1.5" rx="2.0" fill="#898781"/>
<path d="M530.5,356.0 L530.5,351.8 Q530.5,347.8 534.5,347.8 L534.5,347.8 Q538.5,347.8 538.5,351.8 L538.5,356.0 Z" fill="#898781"/>
<rect x="543.5" y="213.7" width="8.1" height="72.3" rx="2.0" fill="none" stroke="#e66767" stroke-width="1.4"/>
<path d="M543.5,356.0 L543.5,349.4 Q543.5,345.4 547.5,345.4 L547.5,345.4 Q551.5,345.4 551.5,349.4 L551.5,356.0 Z" fill="none" stroke="#e66767" stroke-width="1.2"/>
<rect x="556.5" y="213.7" width="8.1" height="24.1" rx="2.0" fill="#008300"/>
<path d="M556.5,356.0 L556.5,355.7 Q556.5,351.7 560.5,351.7 L560.5,351.7 Q564.5,351.7 564.5,355.7 L564.5,356.0 Z" fill="#008300"/>
<rect x="569.5" y="213.7" width="8.1" height="24.1" rx="2.0" fill="none" stroke="#e66767" stroke-width="1.4"/>
<path d="M569.5,356.0 L569.5,356.0 Q569.5,353.6 571.9,353.6 L575.1,353.6 Q577.5,353.6 577.5,356.0 L577.5,356.0 Z" fill="none" stroke="#e66767" stroke-width="1.2"/>
<rect x="582.5" y="286.0" width="8.1" height="1.5" rx="2.0" fill="#898781"/>
<path d="M582.5,356.0 L582.5,356.0 Q582.5,354.6 583.9,354.6 L589.1,354.6 Q590.5,354.6 590.5,356.0 L590.5,356.0 Z" fill="#898781"/>
<rect x="595.5" y="286.0" width="8.1" height="1.5" rx="2.0" fill="#898781"/>
<path d="M595.5,356.0 L595.5,335.4 Q595.5,331.4 599.5,331.4 L599.5,331.4 Q603.5,331.4 603.5,335.4 L603.5,356.0 Z" fill="#898781"/>
<rect x="608.5" y="286.0" width="8.1" height="1.5" rx="2.0" fill="#898781"/>
<path d="M608.5,356.0 L608.5,308.0 Q608.5,304.0 612.5,304.0 L612.5,304.0 Q616.5,304.0 616.5,308.0 L616.5,356.0 Z" fill="#898781"/>
<rect x="621.5" y="286.0" width="8.1" height="1.5" rx="2.0" fill="#898781"/>
<path d="M621.5,356.0 L621.5,354.7 Q621.5,350.7 625.5,350.7 L625.5,350.7 Q629.5,350.7 629.5,354.7 L629.5,356.0 Z" fill="#898781"/>
<rect x="634.5" y="286.0" width="8.1" height="1.5" rx="2.0" fill="#898781"/>
<path d="M634.5,356.0 L634.5,356.0 Q634.5,352.1 638.3,352.1 L638.7,352.1 Q642.5,352.1 642.5,356.0 L642.5,356.0 Z" fill="#898781"/>
<rect x="647.5" y="286.0" width="8.1" height="1.5" rx="2.0" fill="#898781"/>
<path d="M647.5,356.0 L647.5,356.0 Q647.5,352.1 651.3,352.1 L651.7,352.1 Q655.5,352.1 655.5,356.0 L655.5,356.0 Z" fill="#898781"/>
<rect x="660.5" y="286.0" width="8.1" height="1.5" rx="2.0" fill="#898781"/>
<path d="M660.5,356.0 L660.5,347.5 Q660.5,343.5 664.5,343.5 L664.5,343.5 Q668.5,343.5 668.5,347.5 L668.5,356.0 Z" fill="#898781"/>
<rect x="673.5" y="286.0" width="8.1" height="1.5" rx="2.0" fill="#898781"/>
<path d="M673.5,356.0 L673.5,353.7 Q673.5,349.7 677.5,349.7 L677.5,349.7 Q681.5,349.7 681.5,353.7 L681.5,356.0 Z" fill="#898781"/>
<rect x="686.5" y="286.0" width="8.1" height="1.5" rx="2.0" fill="#898781"/>
<path d="M686.5,356.0 L686.5,354.7 Q686.5,350.7 690.5,350.7 L690.5,350.7 Q694.5,350.7 694.5,354.7 L694.5,356.0 Z" fill="#898781"/>
<rect x="699.5" y="286.0" width="8.1" height="1.5" rx="2.0" fill="#898781"/>
<path d="M699.5,356.0 L699.5,348.0 Q699.5,344.0 703.5,344.0 L703.5,344.0 Q707.5,344.0 707.5,348.0 L707.5,356.0 Z" fill="#898781"/>
<rect x="712.5" y="286.0" width="8.1" height="1.5" rx="2.0" fill="#898781"/>
<path d="M712.5,356.0 L712.5,352.8 Q712.5,348.8 716.5,348.8 L716.5,348.8 Q720.5,348.8 720.5,352.8 L720.5,356.0 Z" fill="#898781"/>
<rect x="725.5" y="286.0" width="8.1" height="1.5" rx="2.0" fill="#898781"/>
<path d="M725.5,356.0 L725.5,346.5 Q725.5,342.5 729.5,342.5 L729.5,342.5 Q733.5,342.5 733.5,346.5 L733.5,356.0 Z" fill="#898781"/>
<rect x="738.5" y="286.0" width="8.1" height="1.5" rx="2.0" fill="#898781"/>
<path d="M738.5,356.0 L738.5,356.0 Q738.5,354.1 740.4,354.1 L744.6,354.1 Q746.5,354.1 746.5,356.0 L746.5,356.0 Z" fill="#898781"/>
<rect x="751.5" y="286.0" width="8.1" height="1.5" rx="2.0" fill="#898781"/>
<path d="M751.5,356.0 L751.5,346.5 Q751.5,342.5 755.5,342.5 L755.5,342.5 Q759.5,342.5 759.5,346.5 L759.5,356.0 Z" fill="#898781"/>
<rect x="764.5" y="286.0" width="8.1" height="1.5" rx="2.0" fill="#898781"/>
<path d="M764.5,356.0 L764.5,356.0 Q764.5,352.6 767.8,352.6 L769.2,352.6 Q772.5,352.6 772.5,356.0 L772.5,356.0 Z" fill="#898781"/>
<rect x="777.5" y="69.0" width="8.1" height="217.0" rx="2.0" fill="none" stroke="#e66767" stroke-width="1.4"/>
<path d="M777.5,356.0 L777.5,355.2 Q777.5,351.2 781.5,351.2 L781.5,351.2 Q785.5,351.2 785.5,355.2 L785.5,356.0 Z" fill="none" stroke="#e66767" stroke-width="1.2"/>
<polyline points="14.5,286.0 27.5,286.0 40.5,286.0 53.5,286.0 66.5,286.0 79.5,286.0 92.5,286.0 105.5,286.0 118.5,286.0 131.5,286.0 144.5,286.0 157.5,286.0 170.5,286.0 183.5,286.0 196.5,286.0 209.5,286.0 222.5,286.0 235.5,286.0 248.5,286.0 261.5,286.0 274.5,286.0 287.5,286.0 300.5,286.0 313.5,286.0 326.5,286.0 339.5,286.0 352.5,286.0 365.5,286.0 378.5,286.0 391.5,286.0 404.5,286.0 417.5,286.0 430.5,286.0 443.5,286.0 456.5,286.0 469.5,286.0 482.5,286.0 495.5,286.0 508.5,286.0 521.5,286.0 534.5,286.0 547.5,278.8 560.5,273.9 573.5,266.7 586.5,266.7 599.5,266.7 612.5,266.7 625.5,266.7 638.5,266.7 651.5,266.7 664.5,266.7 677.5,273.9 690.5,278.8 703.5,286.0 716.5,286.0 729.5,286.0 742.5,286.0 755.5,286.0 768.5,286.0 781.5,264.3" fill="none" stroke="#9085e9" stroke-width="2" stroke-linejoin="round" stroke-linecap="round"/>
<polyline points="14.5,286.0 27.5,286.0 40.5,286.0 53.5,286.0 66.5,286.0 79.5,286.0 92.5,286.0 105.5,286.0 118.5,286.0 131.5,286.0 144.5,286.0 157.5,286.0 170.5,286.0 183.5,286.0 196.5,286.0 209.5,286.0 222.5,286.0 235.5,286.0 248.5,286.0 261.5,286.0 274.5,286.0 287.5,286.0 300.5,286.0 313.5,286.0 326.5,286.0 339.5,286.0 352.5,286.0 365.5,286.0 378.5,286.0 391.5,286.0 404.5,286.0 417.5,286.0 430.5,286.0 443.5,286.0 456.5,286.0 469.5,286.0 482.5,286.0 495.5,286.0 508.5,286.0 521.5,286.0 534.5,286.0 547.5,271.5 560.5,261.9 573.5,247.4 586.5,247.4 599.5,247.4 612.5,261.9 625.5,271.5 638.5,286.0 651.5,286.0 664.5,286.0 677.5,286.0 690.5,286.0 703.5,286.0 716.5,286.0 729.5,286.0 742.5,286.0 755.5,286.0 768.5,286.0 781.5,242.6" fill="none" stroke="#3987e5" stroke-width="2" stroke-linejoin="round" stroke-linecap="round"/>
</svg>