<svg xmlns="http://www.w3.org/2000/svg" viewBox="0 0 840 496" width="840" height="496" font-family="-apple-system,&#39;Segoe UI&#39;,system-ui,sans-serif" role="img" aria-label="Grimnirobser candlestick chart">
<text x="14.0" y="20.0" font-size="15" fill="#0b0b0b" font-weight="650">Grimnirobser</text>
<text x="117.0" y="20.0" font-size="11.5" fill="#52514e">daily · contributions, volume = lines changed</text>
<text x="805.8" y="20.0" font-size="11.0" fill="#52514e">fall</text>
<rect x="791" y="10" width="9" height="12" fill="#008300"/>
<text x="750.6" y="20.0" font-size="11.0" fill="#52514e">rise</text>
<rect x="736" y="10" width="9" height="12" fill="none" stroke="#e34948" stroke-width="1.5"/>
<text x="14.0" y="38.0" font-size="11.0" fill="#898781">last 60 active days · 800 contributions · 6,216 lines changed · updated 2026-07-07</text>
<rect x="10" y="66" width="820" height="290" fill="none" stroke="#e1e0d9"/>
<rect x="10" y="384" width="820" height="86" fill="none" stroke="#e1e0d9"/>
<text x="38.0" y="490.0" font-size="11.0" fill="#898781" text-anchor="middle">2026-04</text>
<line x1="242.3" y1="66.0" x2="242.3" y2="356.0" stroke="#e1e0d9" stroke-width="1.0"/>
<line x1="242.3" y1="384.0" x2="242.3" y2="470.0" stroke="#e1e0d9" stroke-width="1.0"/>
<text x="249.2" y="490.0" font-size="11.0" fill="#898781" text-anchor="middle">2026-05</text>
<line x1="474.7" y1="66.0" x2="474.7" y2="356.0" stroke="#e1e0d9" stroke-width="1.0"/>
<line x1="474.7" y1="384.0" x2="474.7" y2="470.0" stroke="#e1e0d9" stroke-width="1.0"/>
<text x="481.5" y="490.0" font-size="11.0" fill="#898781" text-anchor="middle">2026-06</text>
<line x1="734.3" y1="66.0" x2="734.3" y2="356.0" stroke="#e1e0d9" stroke-width="1.0"/>
<line x1="734.3" y1="384.0" x2="734.3" y2="470.0" stroke="#e1e0d9" stroke-width="1.0"/>
<text x="741.2" y="490.0" font-size="11.0" fill="#898781" text-anchor="middle">2026-07</text>
<text x="14.0" y="58.0" font-size="11.0" fill="#52514e">BOLL(20,2)</text>
<text x="84.5" y="58.0" font-size="11.0" fill="#eda100">UP:66.5</text>
<text x="136.9" y="58.0" font-size="11.0" fill="#2a78d6">MID:20.6</text>
<text x="195.3" y="58.0" font-size="11.0" fill="#e87ba4">LOW:0</text>
<line x1="10.0" y1="356.0" x2="830.0" y2="356.0" stroke="#e1e0d9" stroke-width="1.0"/>
<text x="14.0" y="353.0" font-size="11.0" fill="#898781">0</text>
<line x1="10.0" y1="228.1" x2="830.0" y2="228.1" stroke="#e1e0d9" stroke-width="1.0"/>
<text x="14.0" y="225.1" font-size="11.0" fill="#898781">50</text>
<line x1="10.0" y1="100.3" x2="830.0" y2="100.3" stroke="#e1e0d9" stroke-width="1.0"/>
<text x="14.0" y="97.3" font-size="11.0" fill="#898781">100</text>
<polyline points="16.8,286.8 30.5,287.2 44.2,287.5 57.8,292.8 71.5,294.1 85.2,289.3 98.8,292.0 112.5,309.4 126.2,303.4 139.8,302.9 153.5,301.3 167.2,298.3 180.8,298.1 194.5,297.8 208.2,297.5 221.8,297.5 235.5,296.3 249.2,296.3 262.8,271.3 276.5,271.6 290.2,271.4 303.8,271.6 317.5,265.6 331.2,262.7 344.8,262.8 358.5,264.9 372.2,266.1 385.8,266.1 399.5,268.2 413.2,268.2 426.8,268.7 440.5,270.4 454.2,270.5 467.8,271.0 481.5,271.2 495.2,271.1 508.8,272.1 522.5,272.1 536.2,298.3 549.8,298.6 563.5,295.9 577.2,291.2 590.8,303.0 604.5,312.4 618.2,313.4 631.8,277.7 645.5,196.8 659.2,196.7 672.8,196.5 686.5,196.7 700.2,193.8 713.8,193.4 727.5,193.1 741.2,190.8 754.8,190.3 768.5,187.8 782.2,187.9 795.8,185.8 809.5,185.9 823.2,185.9" fill="none" stroke="#eda100" stroke-width="1.5" stroke-linejoin="round" stroke-linecap="round"/>
<polyline points="16.8,332.1 30.5,333.0 44.2,334.1 57.8,336.3 71.5,336.8 85.2,335.3 98.8,335.9 112.5,339.6 126.2,337.3 139.8,336.9 153.5,335.3 167.2,333.4 180.8,333.1 194.5,333.0 208.2,333.5 221.8,333.0 235.5,332.0 249.2,331.6 262.8,325.7 276.5,324.8 290.2,325.1 303.8,324.3 317.5,320.5 331.2,318.0 344.8,318.3 358.5,320.6 372.2,323.0 385.8,322.5 399.5,324.5 413.2,324.5 426.8,326.0 440.5,327.2 454.2,327.6 467.8,329.0 481.5,328.5 495.2,329.3 508.8,330.7 522.5,331.3 536.2,336.9 549.8,337.6 563.5,335.5 577.2,333.9 590.8,336.7 604.5,339.2 618.2,340.1 631.8,334.3 645.5,320.6 659.2,320.5 672.8,320.1 686.5,320.3 700.2,317.4 713.8,316.7 727.5,316.1 741.2,313.2 754.8,311.9 768.5,308.4 782.2,308.3 795.8,305.0 809.5,304.6 823.2,303.3" fill="none" stroke="#2a78d6" stroke-width="1.5" stroke-linejoin="round" stroke-linecap="round"/>
<polyline points="16.8,356.0 30.5,356.0 44.2,356.0 57.8,356.0 71.5,356.0 85.2,356.0 98.8,356.0 112.5,356.0 126.2,356.0 139.8,356.0 153.5,356.0 167.2,356.0 180.8,356.0 194.5,356.0 208.2,356.0 221.8,356.0 235.5,356.0 249.2,356.0 262.8,356.0 276.5,356.0 290.2,356.0 303.8,356.0 317.5,356.0 331.2,356.0 344.8,356.0 358.5,356.0 372.2,356.0 385.8,356.0 399.5,356.0 413.2,356.0 426.8,356.0 440.5,356.0 454.2,356.0 467.8,356.0 481.5,356.0 495.2,356.0 508.8,356.0 522.5,356.0 536.2,356.0 549.8,356.0 563.5,356.0 577.2,356.0 590.8,356.0 604.5,356.0 618.2,356.0 631.8,356.0 645.5,356.0 659.2,356.0 672.8,356.0 686.5,356.0 700.2,356.0 713.8,356.0 727.5,356.0 741.2,356.0 754.8,356.0 768.5,356.0 782.2,356.0 795.8,356.0 809.5,356.0 823.2,356.0" fill="none" stroke="#e87ba4" stroke-width="1.5" stroke-linejoin="round" stroke-linecap="round"/>
<rect x="13.1" y="348.3" width="7.5" height="5.1" fill="none" stroke="#e34948" stroke-width="1.3"/>
<rect x="26.7" y="348.3" width="7.5" height="1.2" fill="#898781"/>
<rect x="40.4" y="353.4" width="7.5" height="2.6" fill="none" stroke="#e34948" stroke-width="1.3"/>
<rect x="54.1" y="340.7" width="7.5" height="12.8" fill="none" stroke="#e34948" stroke-width="1.3"/>
<rect x="67.7" y="325.3" width="7.5" height="15.3" fill="none" stroke="#e34948" stroke-width="1.3"/>
<rect x="81.4" y="297.2" width="7.5" height="28.1" fill="none" stroke="#e34948" stroke-width="1.3"/>
<rect x="95.1" y="304.9" width="7.5" height="51.1" fill="none" stroke="#e34948" stroke-width="1.3"/>
<rect x="108.7" y="304.9" width="7.5" height="35.8" fill="#008300"/>
<rect x="122.4" y="302.3" width="7.5" height="38.4" fill="none" stroke="#e34948" stroke-width="1.3"/>
<rect x="136.1" y="302.3" width="7.5" height="28.1" fill="#008300"/>
<rect x="149.7" y="320.2" width="7.5" height="10.2" fill="none" stroke="#e34948" stroke-width="1.3"/>
<rect x="163.4" y="310.0" width="7.5" height="46.0" fill="none" stroke="#e34948" stroke-width="1.3"/>
<rect x="177.1" y="310.0" width="7.5" height="23.0" fill="#008300"/>
<rect x="190.7" y="322.8" width="7.5" height="10.2" fill="none" stroke="#e34948" stroke-width="1.3"/>
<rect x="204.4" y="353.4" width="7.5" height="2.6" fill="none" stroke="#e34948" stroke-width="1.3"/>
<rect x="218.1" y="338.1" width="7.5" height="17.9" fill="none" stroke="#e34948" stroke-width="1.3"/>
<rect x="231.7" y="320.2" width="7.5" height="35.8" fill="none" stroke="#e34948" stroke-width="1.3"/>
<rect x="245.4" y="338.1" width="7.5" height="17.9" fill="none" stroke="#e34948" stroke-width="1.3"/>
<rect x="259.1" y="233.2" width="7.5" height="104.9" fill="none" stroke="#e34948" stroke-width="1.3"/>
<rect x="272.7" y="335.5" width="7.5" height="20.5" fill="none" stroke="#e34948" stroke-width="1.3"/>
<rect x="286.4" y="335.5" width="7.5" height="17.9" fill="#008300"/>
<rect x="300.1" y="333.0" width="7.5" height="20.5" fill="none" stroke="#e34948" stroke-width="1.3"/>
<rect x="313.7" y="276.7" width="7.5" height="56.3" fill="none" stroke="#e34948" stroke-width="1.3"/>
<rect x="327.4" y="276.7" width="7.5" height="15.3" fill="#008300"/>
<rect x="341.1" y="292.1" width="7.5" height="38.4" fill="#008300"/>
<rect x="354.7" y="330.4" width="7.5" height="12.8" fill="#008300"/>
<rect x="368.4" y="353.4" width="7.5" height="2.6" fill="none" stroke="#e34948" stroke-width="1.3"/>
<rect x="382.1" y="330.4" width="7.5" height="23.0" fill="none" stroke="#e34948" stroke-width="1.3"/>
<rect x="395.7" y="330.4" width="7.5" height="12.8" fill="#008300"/>
<rect x="409.4" y="330.4" width="7.5" height="12.8" fill="none" stroke="#e34948" stroke-width="1.3"/>
<rect x="423.1" y="348.3" width="7.5" height="7.7" fill="none" stroke="#e34948" stroke-width="1.3"/>
<rect x="436.7" y="335.5" width="7.5" height="12.8" fill="none" stroke="#e34948" stroke-width="1.3"/>
<rect x="450.4" y="335.5" width="7.5" height="5.1" fill="#008300"/>
<rect x="464.1" y="350.9" width="7.5" height="5.1" fill="none" stroke="#e34948" stroke-width="1.3"/>
<rect x="477.7" y="343.2" width="7.5" height="7.7" fill="none" stroke="#e34948" stroke-width="1.3"/>
<rect x="491.4" y="343.2" width="7.5" height="10.2" fill="#008300"/>
<rect x="505.1" y="348.3" width="7.5" height="7.7" fill="none" stroke="#e34948" stroke-width="1.3"/>
<rect x="518.7" y="348.3" width="7.5" height="2.6" fill="#008300"/>
<rect x="532.4" y="345.8" width="7.5" height="5.1" fill="none" stroke="#e34948" stroke-width="1.3"/>
<rect x="546.1" y="345.8" width="7.5" height="2.6" fill="#008300"/>
<rect x="559.7" y="312.5" width="7.5" height="35.8" fill="none" stroke="#e34948" stroke-width="1.3"/>
<rect x="573.4" y="299.7" width="7.5" height="12.8" fill="none" stroke="#e34948" stroke-width="1.3"/>
<rect x="587.1" y="299.7" width="7.5" height="33.2" fill="#008300"/>
<rect x="600.7" y="333.0" width="7.5" height="10.2" fill="#008300"/>
<rect x="614.4" y="348.3" width="7.5" height="7.7" fill="none" stroke="#e34948" stroke-width="1.3"/>
<rect x="628.1" y="225.6" width="7.5" height="130.4" fill="none" stroke="#e34948" stroke-width="1.3"/>
<rect x="641.7" y="79.8" width="7.5" height="145.8" fill="none" stroke="#e34948" stroke-width="1.3"/>
<rect x="655.4" y="79.8" width="7.5" height="248.1" fill="#008300"/>
<rect x="669.1" y="335.5" width="7.5" height="20.5" fill="none" stroke="#e34948" stroke-width="1.3"/>
<rect x="682.7" y="335.5" width="7.5" height="1.2" fill="#898781"/>
<rect x="696.4" y="289.5" width="7.5" height="46.0" fill="none" stroke="#e34948" stroke-width="1.3"/>
<rect x="710.1" y="289.5" width="7.5" height="33.2" fill="#008300"/>
<rect x="723.7" y="322.8" width="7.5" height="5.1" fill="#008300"/>
<rect x="737.4" y="292.1" width="7.5" height="35.8" fill="none" stroke="#e34948" stroke-width="1.3"/>
<rect x="751.1" y="292.1" width="7.5" height="25.6" fill="#008300"/>
<rect x="764.7" y="284.4" width="7.5" height="33.2" fill="none" stroke="#e34948" stroke-width="1.3"/>
<rect x="778.4" y="284.4" width="7.5" height="61.4" fill="#008300"/>
<rect x="792.1" y="284.4" width="7.5" height="61.4" fill="none" stroke="#e34948" stroke-width="1.3"/>
<rect x="805.7" y="284.4" width="7.5" height="53.7" fill="#008300"/>
<rect x="819.4" y="322.8" width="7.5" height="15.3" fill="none" stroke="#e34948" stroke-width="1.3"/>
<circle cx="645.5" cy="79.8" r="2" fill="#52514e"/>
<line x1="645.5" y1="79.8" x2="637.5" y2="79.8" stroke="#52514e" stroke-width="1.0"/>
<text x="634.5" y="83.8" font-size="11.0" fill="#52514e" text-anchor="end">108</text>
<circle cx="44.2" cy="356.0" r="2" fill="#52514e"/>
<line x1="44.2" y1="356.0" x2="52.2" y2="356.0" stroke="#52514e" stroke-width="1.0"/>
<text x="55.2" y="350.0" font-size="11.0" fill="#52514e">0</text>
<text x="14.0" y="376.0" font-size="11.0" fill="#52514e">VOL 2,048 lines</text>
<text x="114.8" y="376.0" font-size="11.0" fill="#eda100">MA5:409.6</text>
<text x="179.2" y="376.0" font-size="11.0" fill="#2a78d6">MA10:204.8</text>
<text x="14.0" y="395.0" font-size="10" fill="#898781">2,706</text>
<rect x="573.4" y="426.8" width="7.5" height="43.2" fill="none" stroke="#e34948" stroke-width="1.1"/>
<rect x="587.1" y="388.0" width="7.5" height="82.0" fill="#008300"/>
<rect x="600.7" y="468.9" width="7.5" height="1.1" fill="#008300"/>
<rect x="819.4" y="407.9" width="7.5" height="62.1" fill="none" stroke="#e34948" stroke-width="1.1"/>
<polyline points="16.8,470.0 30.5,470.0 44.2,470.0 57.8,470.0 71.5,470.0 85.2,470.0 98.8,470.0 112.5,470.0 126.2,470.0 139.8,470.0 153.5,470.0 167.2,470.0 180.8,470.0 194.5,470.0 208.2,470.0 221.8,470.0 235.5,470.0 249.2,470.0 262.8,470.0 276.5,470.0 290.2,470.0 303.8,470.0 317.5,470.0 331.2,470.0 344.8,470.0 358.5,470.0 372.2,470.0 385.8,470.0 399.5,470.0 413.2,470.0 426.8,470.0 440.5,470.0 454.2,470.0 467.8,470.0 481.5,470.0 495.2,470.0 508.8,470.0 522.5,470.0 536.2,470.0 549.8,470.0 563.5,470.0 577.2,465.7 590.8,457.5 604.5,457.4 618.2,457.4 631.8,457.4 645.5,457.4 659.2,457.4 672.8,457.4 686.5,457.4 700.2,457.4 713.8,461.7 727.5,469.9 741.2,470.0 754.8,470.0 768.5,470.0 782.2,470.0 795.8,470.0 809.5,470.0 823.2,463.8" fill="none" stroke="#2a78d6" stroke-width="1.5" stroke-linejoin="round" stroke-linecap="round"/>
<polyline points="16.8,470.0 30.5,470.0 44.2,470.0 57.8,470.0 71.5,470.0 85.2,470.0 98.8,470.0 112.5,470.0 126.2,470.0 139.8,470.0 153.5,470.0 167.2,470.0 180.8,470.0 194.5,470.0 208.2,470.0 221.8,470.0 235.5,470.0 249.2,470.0 262.8,470.0 276.5,470.0 290.2,470.0 303.8,470.0 317.5,470.0 331.2,470.0 344.8,470.0 358.5,470.0 372.2,470.0 385.8,470.0 399.5,470.0 413.2,470.0 426.8,470.0 440.5,470.0 454.2,470.0 467.8,470.0 481.5,470.0 495.2,470.0 508.8,470.0 522.5,470.0 536.2,470.0 549.8,470.0 563.5,470.0 577.2,461.4 590.8,445.0 604.5,444.7 618.2,444.7 631.8,444.7 645.5,453.4 659.2,469.8 672.8,470.0 686.5,470.0 700.2,470.0 713.8,470.0 727.5,470.0 741.2,470.0 754.8,470.0 768.5,470.0 782.2,470.0 795.8,470.0 809.5,470.0 823.2,457.6" fill="none" stroke="#eda100" stroke-width="1.5" stroke-linejoin="round" stroke-linecap="round"/>
</svg>