<svg xmlns="http://www.w3.org/2000/svg" viewBox="0 0 840 380" width="840" height="380" font-family="-apple-system,&#39;Segoe UI&#39;,system-ui,sans-serif" role="img" aria-label="Grimnirobser candlestick chart">
<text x="10" y="20" font-size="15" font-weight="650" fill="#ffffff">Grimnirobser</text>
<text x="113" y="20" font-size="11.5" fill="#c3c2b7">daily · contributions, volume = lines changed</text>
<text x="10" y="38" font-size="11" fill="#898781">last 60 active days · 798 contributions · 5,796 lines changed · updated 2026-07-07</text>
<text x="806" y="20" font-size="11" fill="#c3c2b7">MA10</text>
<rect x="789" y="14.5" width="13" height="2.5" rx="1" fill="#9085e9"/>
<text x="755" y="20" font-size="11" fill="#c3c2b7">MA5</text>
<rect x="738" y="14.5" width="13" height="2.5" rx="1" fill="#3987e5"/>
<text x="697" y="20" font-size="11" fill="#c3c2b7">fall</text>
<rect x="682" y="10" width="9" height="12" rx="2.5" fill="#008300"/>
<text x="642" y="20" font-size="11" fill="#c3c2b7">rise</text>
<rect x="627" y="10" width="9" height="12" rx="2.5" fill="none" stroke="#e66767" stroke-width="1.5"/>
<line x1="8" x2="788" y1="286.0" y2="286.0" stroke="#2c2c2a"/>
<text x="796" y="290.0" font-size="11" fill="#898781">0</text>
<line x1="8" x2="788" y1="185.5" y2="185.5" stroke="#2c2c2a"/>
<text x="796" y="189.5" font-size="11" fill="#898781">50</text>
<line x1="8" x2="788" y1="85.1" y2="85.1" stroke="#2c2c2a"/>
<text x="796" y="89.1" font-size="11" fill="#898781">100</text>
<line x1="8" x2="788" y1="356.0" y2="356.0" stroke="#383835"/>
<text x="796" y="308.0" font-size="11" fill="#898781">2,706</text>
<text x="796" y="320.0" font-size="10" fill="#898781">lines</text>
<text x="34.0" y="372" font-size="11" fill="#898781" text-anchor="middle">04-02</text>
<text x="144.5" y="372" font-size="11" fill="#898781" text-anchor="middle">04-17</text>
<text x="274.5" y="372" font-size="11" fill="#898781" text-anchor="middle">05-10</text>
<text x="404.5" y="372" font-size="11" fill="#898781" text-anchor="middle">05-25</text>
<text x="534.5" y="372" font-size="11" fill="#898781" text-anchor="middle">06-10</text>
<text x="664.5" y="372" font-size="11" fill="#898781" text-anchor="middle">06-28</text>
<rect x="10.5" y="280.0" width="8.1" height="4.0" rx="2.0" fill="none" stroke="#e66767" stroke-width="1.4"/>
<path d="M10.5,356.0 L10.5,356.0 Q10.5,356.0 10.5,356.0 L18.5,356.0 Q18.5,356.0 18.5,356.0 L18.5,356.0 Z" fill="none" stroke="#e66767" stroke-width="1.2"/>
<rect x="23.5" y="280.0" width="8.1" height="1.5" rx="2.0" fill="#898781"/>
<path d="M23.5,356.0 L23.5,356.0 Q23.5,356.0 23.5,356.0 L31.5,356.0 Q31.5,356.0 31.5,356.0 L31.5,356.0 Z" fill="#898781"/>
<rect x="36.5" y="284.0" width="8.1" height="2.0" rx="2.0" fill="none" stroke="#e66767" stroke-width="1.4"/>
<path d="M36.5,356.0 L36.5,356.0 Q36.5,356.0 36.5,356.0 L44.5,356.0 Q44.5,356.0 44.5,356.0 L44.5,356.0 Z" fill="none" stroke="#e66767" stroke-width="1.2"/>
<rect x="49.5" y="273.9" width="8.1" height="10.0" rx="2.0" fill="none" stroke="#e66767" stroke-width="1.4"/>
<path d="M49.5,356.0 L49.5,356.0 Q49.5,356.0 49.5,356.0 L57.5,356.0 Q57.5,356.0 57.5,356.0 L57.5,356.0 Z" fill="none" stroke="#e66767" stroke-width="1.2"/>
<rect x="62.5" y="261.9" width="8.1" height="12.1" rx="2.0" fill="none" stroke="#e66767" stroke-width="1.4"/>
<path d="M62.5,356.0 L62.5,356.0 Q62.5,356.0 62.5,356.0 L70.5,356.0 Q70.5,356.0 70.5,356.0 L70.5,356.0 Z" fill="none" stroke="#e66767" stroke-width="1.2"/>
<rect x="75.5" y="239.8" width="8.1" height="22.1" rx="2.0" fill="none" stroke="#e66767" stroke-width="1.4"/>
<path d="M75.5,356.0 L75.5,356.0 Q75.5,356.0 75.5,356.0 L83.5,356.0 Q83.5,356.0 83.5,356.0 L83.5,356.0 Z" fill="none" stroke="#e66767" stroke-width="1.2"/>
<rect x="88.5" y="245.8" width="8.1" height="40.2" rx="2.0" fill="none" stroke="#e66767" stroke-width="1.4"/>
<path d="M88.5,356.0 L88.5,356.0 Q88.5,356.0 88.5,356.0 L96.5,356.0 Q96.5,356.0 96.5,356.0 L96.5,356.0 Z" fill="none" stroke="#e66767" stroke-width="1.2"/>
<rect x="101.5" y="245.8" width="8.1" height="28.1" rx="2.0" fill="#008300"/>
<path d="M101.5,356.0 L101.5,356.0 Q101.5,356.0 101.5,356.0 L109.5,356.0 Q109.5,356.0 109.5,356.0 L109.5,356.0 Z" fill="#008300"/>
<rect x="114.5" y="243.8" width="8.1" height="30.1" rx="2.0" fill="none" stroke="#e66767" stroke-width="1.4"/>
<path d="M114.5,356.0 L114.5,356.0 Q114.5,356.0 114.5,356.0 L122.5,356.0 Q122.5,356.0 122.5,356.0 L122.5,356.0 Z" fill="none" stroke="#e66767" stroke-width="1.2"/>
<rect x="127.5" y="243.8" width="8.1" height="22.1" rx="2.0" fill="#008300"/>
<path d="M127.5,356.0 L127.5,356.0 Q127.5,356.0 127.5,356.0 L135.5,356.0 Q135.5,356.0 135.5,356.0 L135.5,356.0 Z" fill="#008300"/>
<rect x="140.5" y="257.9" width="8.1" height="8.0" rx="2.0" fill="none" stroke="#e66767" stroke-width="1.4"/>
<path d="M140.5,356.0 L140.5,356.0 Q140.5,356.0 140.5,356.0 L148.5,356.0 Q148.5,356.0 148.5,356.0 L148.5,356.0 Z" fill="none" stroke="#e66767" stroke-width="1.2"/>
<rect x="153.5" y="249.8" width="8.1" height="36.2" rx="2.0" fill="none" stroke="#e66767" stroke-width="1.4"/>
<path d="M153.5,356.0 L153.5,356.0 Q153.5,356.0 153.5,356.0 L161.5,356.0 Q161.5,356.0 161.5,356.0 L161.5,356.0 Z" fill="none" stroke="#e66767" stroke-width="1.2"/>
<rect x="166.5" y="249.8" width="8.1" height="18.1" rx="2.0" fill="#008300"/>
<path d="M166.5,356.0 L166.5,356.0 Q166.5,356.0 166.5,356.0 L174.5,356.0 Q174.5,356.0 174.5,356.0 L174.5,356.0 Z" fill="#008300"/>
<rect x="179.5" y="259.9" width="8.1" height="8.0" rx="2.0" fill="none" stroke="#e66767" stroke-width="1.4"/>
<path d="M179.5,356.0 L179.5,356.0 Q179.5,356.0 179.5,356.0 L187.5,356.0 Q187.5,356.0 187.5,356.0 L187.5,356.0 Z" fill="none" stroke="#e66767" stroke-width="1.2"/>
<rect x="192.5" y="284.0" width="8.1" height="2.0" rx="2.0" fill="none" stroke="#e66767" stroke-width="1.4"/>
<path d="M192.5,356.0 L192.5,356.0 Q192.5,356.0 192.5,356.0 L200.5,356.0 Q200.5,356.0 200.5,356.0 L200.5,356.0 Z" fill="none" stroke="#e66767" stroke-width="1.2"/>
<rect x="205.5" y="271.9" width="8.1" height="14.1" rx="2.0" fill="none" stroke="#e66767" stroke-width="1.4"/>
<path d="M205.5,356.0 L205.5,356.0 Q205.5,356.0 205.5,356.0 L213.5,356.0 Q213.5,356.0 213.5,356.0 L213.5,356.0 Z" fill="none" stroke="#e66767" stroke-width="1.2"/>
<rect x="218.5" y="257.9" width="8.1" height="28.1" rx="2.0" fill="none" stroke="#e66767" stroke-width="1.4"/>
<path d="M218.5,356.0 L218.5,356.0 Q218.5,356.0 218.5,356.0 L226.5,356.0 Q226.5,356.0 226.5,356.0 L226.5,356.0 Z" fill="none" stroke="#e66767" stroke-width="1.2"/>
<rect x="231.5" y="271.9" width="8.1" height="14.1" rx="2.0" fill="none" stroke="#e66767" stroke-width="1.4"/>
<path d="M231.5,356.0 L231.5,356.0 Q231.5,356.0 231.5,356.0 L239.5,356.0 Q239.5,356.0 239.5,356.0 L239.5,356.0 Z" fill="none" stroke="#e66767" stroke-width="1.2"/>
<rect x="244.5" y="189.6" width="8.1" height="82.4" rx="2.0" fill="none" stroke="#e66767" stroke-width="1.4"/>
<path d="M244.5,356.0 L244.5,356.0 Q244.5,356.0 244.5,356.0 L252.5,356.0 Q252.5,356.0 252.5,356.0 L252.5,356.0 Z" fill="none" stroke="#e66767" stroke-width="1.2"/>
<rect x="257.5" y="269.9" width="8.1" height="16.1" rx="2.0" fill="none" stroke="#e66767" stroke-width="1.4"/>
<path d="M257.5,356.0 L257.5,356.0 Q257.5,356.0 257.5,356.0 L265.5,356.0 Q265.5,356.0 265.5,356.0 L265.5,356.0 Z" fill="none" stroke="#e66767" stroke-width="1.2"/>
<rect x="270.5" y="269.9" width="8.1" height="14.1" rx="2.0" fill="#008300"/>
<path d="M270.5,356.0 L270.5,356.0 Q270.5,356.0 270.5,356.0 L278.5,356.0 Q278.5,356.0 278.5,356.0 L278.5,356.0 Z" fill="#008300"/>
<rect x="283.5" y="267.9" width="8.1" height="16.1" rx="2.0" fill="none" stroke="#e66767" stroke-width="1.4"/>
<path d="M283.5,356.0 L283.5,356.0 Q283.5,356.0 283.5,356.0 L291.5,356.0 Q291.5,356.0 291.5,356.0 L291.5,356.0 Z" fill="none" stroke="#e66767" stroke-width="1.2"/>
<rect x="296.5" y="223.7" width="8.1" height="44.2" rx="2.0" fill="none" stroke="#e66767" stroke-width="1.4"/>
<path d="M296.5,356.0 L296.5,356.0 Q296.5,356.0 296.5,356.0 L304.5,356.0 Q304.5,356.0 304.5,356.0 L304.5,356.0 Z" fill="none" stroke="#e66767" stroke-width="1.2"/>
<rect x="309.5" y="223.7" width="8.1" height="12.1" rx="2.0" fill="#008300"/>
<path d="M309.5,356.0 L309.5,356.0 Q309.5,356.0 309.5,356.0 L317.5,356.0 Q317.5,356.0 317.5,356.0 L317.5,356.0 Z" fill="#008300"/>
<rect x="322.5" y="235.8" width="8.1" height="30.1" rx="2.0" fill="#008300"/>
<path d="M322.5,356.0 L322.5,356.0 Q322.5,356.0 322.5,356.0 L330.5,356.0 Q330.5,356.0 330.5,356.0 L330.5,356.0 Z" fill="#008300"/>
<rect x="335.5" y="265.9" width="8.1" height="10.0" rx="2.0" fill="#008300"/>
<path d="M335.5,356.0 L335.5,356.0 Q335.5,356.0 335.5,356.0 L343.5,356.0 Q343.5,356.0 343.5,356.0 L343.5,356.0 Z" fill="#008300"/>
<rect x="348.5" y="284.0" width="8.1" height="2.0" rx="2.0" fill="none" stroke="#e66767" stroke-width="1.4"/>
<path d="M348.5,356.0 L348.5,356.0 Q348.5,356.0 348.5,356.0 L356.5,356.0 Q356.5,356.0 356.5,356.0 L356.5,356.0 Z" fill="none" stroke="#e66767" stroke-width="1.2"/>
<rect x="361.5" y="265.9" width="8.1" height="18.1" rx="2.0" fill="none" stroke="#e66767" stroke-width="1.4"/>
<path d="M361.5,356.0 L361.5,356.0 Q361.5,356.0 361.5,356.0 L369.5,356.0 Q369.5,356.0 369.5,356.0 L369.5,356.0 Z" fill="none" stroke="#e66767" stroke-width="1.2"/>
<rect x="374.5" y="265.9" width="8.1" height="10.0" rx="2.0" fill="#008300"/>
<path d="M374.5,356.0 L374.5,356.0 Q374.5,356.0 374.5,356.0 L382.5,356.0 Q382.5,356.0 382.5,356.0 L382.5,356.0 Z" fill="#008300"/>
<rect x="387.5" y="265.9" width="8.1" height="10.0" rx="2.0" fill="none" stroke="#e66767" stroke-width="1.4"/>
<path d="M387.5,356.0 L387.5,356.0 Q387.5,356.0 387.5,356.0 L395.5,356.0 Q395.5,356.0 395.5,356.0 L395.5,356.0 Z" fill="none" stroke="#e66767" stroke-width="1.2"/>
<rect x="400.5" y="280.0" width="8.1" height="6.0" rx="2.0" fill="none" stroke="#e66767" stroke-width="1.4"/>
<path d="M400.5,356.0 L400.5,356.0 Q400.5,356.0 400.5,356.0 L408.5,356.0 Q408.5,356.0 408.5,356.0 L408.5,356.0 Z" fill="none" stroke="#e66767" stroke-width="1.2"/>
<rect x="413.5" y="269.9" width="8.1" height="10.0" rx="2.0" fill="none" stroke="#e66767" stroke-width="1.4"/>
<path d="M413.5,356.0 L413.5,356.0 Q413.5,356.0 413.5,356.0 L421.5,356.0 Q421.5,356.0 421.5,356.0 L421.5,356.0 Z" fill="none" stroke="#e66767" stroke-width="1.2"/>
<rect x="426.5" y="269.9" width="8.1" height="4.0" rx="2.0" fill="#008300"/>
<path d="M426.5,356.0 L426.5,356.0 Q426.5,356.0 426.5,356.0 L434.5,356.0 Q434.5,356.0 434.5,356.0 L434.5,356.0 Z" fill="#008300"/>
<rect x="439.5" y="282.0" width="8.1" height="4.0" rx="2.0" fill="none" stroke="#e66767" stroke-width="1.4"/>
<path d="M439.5,356.0 L439.5,356.0 Q439.5,356.0 439.5,356.0 L447.5,356.0 Q447.5,356.0 447.5,356.0 L447.5,356.0 Z" fill="none" stroke="#e66767" stroke-width="1.2"/>
<rect x="452.5" y="276.0" width="8.1" height="6.0" rx="2.0" fill="none" stroke="#e66767" stroke-width="1.4"/>
<path d="M452.5,356.0 L452.5,356.0 Q452.5,356.0 452.5,356.0 L460.5,356.0 Q460.5,356.0 460.5,356.0 L460.5,356.0 Z" fill="none" stroke="#e66767" stroke-width="1.2"/>
<rect x="465.5" y="276.0" width="8.1" height="8.0" rx="2.0" fill="#008300"/>
<path d="M465.5,356.0 L465.5,356.0 Q465.5,356.0 465.5,356.0 L473.5,356.0 Q473.5,356.0 473.5,356.0 L473.5,356.0 Z" fill="#008300"/>
<rect x="478.5" y="280.0" width="8.1" height="6.0" rx="2.0" fill="none" stroke="#e66767" stroke-width="1.4"/>
<path d="M478.5,356.0 L478.5,356.0 Q478.5,356.0 478.5,356.0 L486.5,356.0 Q486.5,356.0 486.5,356.0 L486.5,356.0 Z" fill="none" stroke="#e66767" stroke-width="1.2"/>
<rect x="491.5" y="280.0" width="8.1" height="2.0" rx="2.0" fill="#008300"/>
<path d="M491.5,356.0 L491.5,356.0 Q491.5,356.0 491.5,356.0 L499.5,356.0 Q499.5,356.0 499.5,356.0 L499.5,356.0 Z" fill="#008300"/>
<rect x="504.5" y="278.0" width="8.1" height="4.0" rx="2.0" fill="none" stroke="#e66767" stroke-width="1.4"/>
<path d="M504.5,356.0 L504.5,356.0 Q504.5,356.0 504.5,356.0 L512.5,356.0 Q512.5,356.0 512.5,356.0 L512.5,356.0 Z" fill="none" stroke="#e66767" stroke-width="1.2"/>
<rect x="517.5" y="278.0" width="8.1" height="2.0" rx="2.0" fill="#008300"/>
<path d="M517.5,356.0 L517.5,356.0 Q517.5,356.0 517.5,356.0 L525.5,356.0 Q525.5,356.0 525.5,356.0 L525.5,356.0 Z" fill="#008300"/>
<rect x="530.5" y="251.8" width="8.1" height="28.1" rx="2.0" fill="none" stroke="#e66767" stroke-width="1.4"/>
<path d="M530.5,356.0 L530.5,356.0 Q530.5,356.0 530.5,356.0 L538.5,356.0 Q538.5,356.0 538.5,356.0 L538.5,356.0 Z" fill="none" stroke="#e66767" stroke-width="1.2"/>
<rect x="543.5" y="241.8" width="8.1" height="10.0" rx="2.0" fill="none" stroke="#e66767" stroke-width="1.4"/>
<path d="M543.5,356.0 L543.5,332.6 Q543.5,328.6 547.5,328.6 L547.5,328.6 Q551.5,328.6 551.5,332.6 L551.5,356.0 Z" fill="none" stroke="#e66767" stroke-width="1.2"/>
<rect x="556.5" y="241.8" width="8.1" height="26.1" rx="2.0" fill="#008300"/>
<path d="M556.5,356.0 L556.5,308.0 Q556.5,304.0 560.5,304.0 L560.5,304.0 Q564.5,304.0 564.5,308.0 L564.5,356.0 Z" fill="#008300"/>
<rect x="569.5" y="267.9" width="8.1" height="8.0" rx="2.0" fill="#008300"/>
<path d="M569.5,356.0 L569.5,356.0 Q569.5,355.3 570.2,355.3 L576.8,355.3 Q577.5,355.3 577.5,356.0 L577.5,356.0 Z" fill="#008300"/>
<rect x="582.5" y="280.0" width="8.1" height="6.0" rx="2.0" fill="none" stroke="#e66767" stroke-width="1.4"/>
<path d="M582.5,356.0 L582.5,356.0 Q582.5,356.0 582.5,356.0 L590.5,356.0 Q590.5,356.0 590.5,356.0 L590.5,356.0 Z" fill="none" stroke="#e66767" stroke-width="1.2"/>
<rect x="595.5" y="183.5" width="8.1" height="102.5" rx="2.0" fill="none" stroke="#e66767" stroke-width="1.4"/>
<path d="M595.5,356.0 L595.5,356.0 Q595.5,356.0 595.5,356.0 L603.5,356.0 Q603.5,356.0 603.5,356.0 L603.5,356.0 Z" fill="none" stroke="#e66767" stroke-width="1.2"/>
<rect x="608.5" y="69.0" width="8.1" height="114.5" rx="2.0" fill="none" stroke="#e66767" stroke-width="1.4"/>
<path d="M608.5,356.0 L608.5,356.0 Q608.5,356.0 608.5,356.0 L616.5,356.0 Q616.5,356.0 616.5,356.0 L616.5,356.0 Z" fill="none" stroke="#e66767" stroke-width="1.2"/>
<rect x="621.5" y="69.0" width="8.1" height="194.9" rx="2.0" fill="#008300"/>
<path d="M621.5,356.0 L621.5,356.0 Q621.5,356.0 621.5,356.0 L629.5,356.0 Q629.5,356.0 629.5,356.0 L629.5,356.0 Z" fill="#008300"/>
<rect x="634.5" y="269.9" width="8.1" height="16.1" rx="2.0" fill="none" stroke="#e66767" stroke-width="1.4"/>
<path d="M634.5,356.0 L634.5,356.0 Q634.5,356.0 634.5,356.0 L642.5,356.0 Q642.5,356.0 642.5,356.0 L642.5,356.0 Z" fill="none" stroke="#e66767" stroke-width="1.2"/>
<rect x="647.5" y="269.9" width="8.1" height="1.5" rx="2.0" fill="#898781"/>
<path d="M647.5,356.0 L647.5,356.0 Q647.5,356.0 647.5,356.0 L655.5,356.0 Q655.5,356.0 655.5,356.0 L655.5,356.0 Z" fill="#898781"/>
<rect x="660.5" y="233.8" width="8.1" height="36.2" rx="2.0" fill="none" stroke="#e66767" stroke-width="1.4"/>
<path d="M660.5,356.0 L660.5,356.0 Q660.5,356.0 660.5,356.0 L668.5,356.0 Q668.5,356.0 668.5,356.0 L668.5,356.0 Z" fill="none" stroke="#e66767" stroke-width="1.2"/>
<rect x="673.5" y="233.8" width="8.1" height="26.1" rx="2.0" fill="#008300"/>
<path d="M673.5,356.0 L673.5,356.0 Q673.5,356.0 673.5,356.0 L681.5,356.0 Q681.5,356.0 681.5,356.0 L681.5,356.0 Z" fill="#008300"/>
<rect x="686.5" y="259.9" width="8.1" height="4.0" rx="2.0" fill="#008300"/>
<path d="M686.5,356.0 L686.5,356.0 Q686.5,356.0 686.5,356.0 L694.5,356.0 Q694.5,356.0 694.5,356.0 L694.5,356.0 Z" fill="#008300"/>
<rect x="699.5" y="235.8" width="8.1" height="28.1" rx="2.0" fill="none" stroke="#e66767" stroke-width="1.4"/>
<path d="M699.5,356.0 L699.5,356.0 Q699.5,356.0 699.5,356.0 L707.5,356.0 Q707.5,356.0 707.5,356.0 L707.5,356.0 Z" fill="none" stroke="#e66767" stroke-width="1.2"/>
<rect x="712.5" y="235.8" width="8.1" height="20.1" rx="2.0" fill="#008300"/>
<path d="M712.5,356.0 L712.5,356.0 Q712.5,356.0 712.5,356.0 L720.5,356.0 Q720.5,356.0 720.5,356.0 L720.5,356.0 Z" fill="#008300"/>
<rect x="725.5" y="229.7" width="8.1" height="26.1" rx="2.0" fill="none" stroke="#e66767" stroke-width="1.4"/>
<path d="M725.5,356.0 L725.5,356.0 Q725.5,356.0 725.5,356.0 L733.5,356.0 Q733.5,356.0 733.5,356.0 L733.5,356.0 Z" fill="none" stroke="#e66767" stroke-width="1.2"/>
<rect x="738.5" y="229.7" width="8.1" height="48.2" rx="2.0" fill="#008300"/>
<path d="M738.5,356.0 L738.5,356.0 Q738.5,356.0 738.5,356.0 L746.5,356.0 Q746.5,356.0 746.5,356.0 L746.5,356.0 Z" fill="#008300"/>
<rect x="751.5" y="229.7" width="8.1" height="48.2" rx="2.0" fill="none" stroke="#e66767" stroke-width="1.4"/>
<path d="M751.5,356.0 L751.5,356.0 Q751.5,356.0 751.5,356.0 L759.5,356.0 Q759.5,356.0 759.5,356.0 L759.5,356.0 Z" fill="none" stroke="#e66767" stroke-width="1.2"/>
<rect x="764.5" y="229.7" width="8.1" height="42.2" rx="2.0" fill="#008300"/>
<path d="M764.5,356.0 L764.5,356.0 Q764.5,356.0 764.5,356.0 L772.5,356.0 Q772.5,356.0 772.5,356.0 L772.5,356.0 Z" fill="#008300"/>
<rect x="777.5" y="263.9" width="8.1" height="8.0" rx="2.0" fill="none" stroke="#e66767" stroke-width="1.4"/>
<path d="M777.5,356.0 L777.5,328.7 Q777.5,324.7 781.5,324.7 L781.5,324.7 Q785.5,324.7 785.5,328.7 L785.5,356.0 Z" fill="none" stroke="#e66767" stroke-width="1.2"/>
<polyline points="14.5,276.8 27.5,276.8 40.5,278.0 53.5,279.2 66.5,277.8 79.5,273.7 92.5,270.9 105.5,270.5 118.5,266.7 131.5,264.9 144.5,262.7 157.5,259.7 170.5,258.1 183.5,256.7 196.5,258.9 209.5,262.1 222.5,263.3 235.5,263.1 248.5,257.7 261.5,258.1 274.5,260.7 287.5,262.5 300.5,258.1 313.5,255.7 326.5,253.9 339.5,254.3 352.5,256.9 365.5,256.3 378.5,264.9 391.5,264.5 404.5,264.1 417.5,264.3 430.5,269.3 443.5,273.9 456.5,275.0 469.5,275.8 482.5,275.4 495.5,277.0 508.5,277.2 521.5,278.6 534.5,275.8 547.5,272.9 560.5,272.3 573.5,271.7 586.5,272.1 599.5,262.1 612.5,241.0 625.5,239.2 638.5,238.4 651.5,237.4 664.5,235.6 677.5,237.4 690.5,237.0 703.5,233.0 716.5,230.5 729.5,235.2 742.5,256.1 755.5,252.6 768.5,252.9 781.5,252.2" fill="none" stroke="#9085e9" stroke-width="2" stroke-linejoin="round" stroke-linecap="round"/>
<polyline points="14.5,279.6 27.5,280.8 40.5,282.0 53.5,280.4 66.5,276.0 79.5,267.9 92.5,261.1 105.5,259.1 118.5,253.1 131.5,253.9 144.5,257.5 157.5,258.3 170.5,257.1 183.5,260.3 196.5,263.9 209.5,266.7 222.5,268.3 235.5,269.1 248.5,255.1 261.5,252.2 274.5,254.7 287.5,256.7 300.5,247.0 313.5,256.3 326.5,255.5 339.5,253.9 352.5,257.1 365.5,265.5 378.5,273.5 391.5,273.5 404.5,274.3 417.5,271.5 430.5,273.1 443.5,274.3 456.5,276.4 469.5,277.2 482.5,279.2 495.5,280.8 508.5,280.0 521.5,280.8 534.5,274.3 547.5,266.7 560.5,263.9 573.5,263.5 586.5,263.5 599.5,249.8 612.5,215.3 625.5,214.5 638.5,213.3 651.5,211.3 664.5,221.3 677.5,259.5 690.5,259.5 703.5,252.6 716.5,249.8 729.5,249.0 742.5,252.6 755.5,245.8 768.5,253.1 781.5,254.7" fill="none" stroke="#3987e5" stroke-width="2" stroke-linejoin="round" stroke-linecap="round"/>
</svg>